<?xml version="1.0" encoding="UTF-8" standalone="no" ?>
<!DOCTYPE svg PUBLIC "-//W3C//DTD SVG 1.1//EN" "http://www.w3.org/Graphics/SVG/1.1/DTD/svg11.dtd">
<svg xmlns="http://www.w3.org/2000/svg" xmlns:xlink="http://www.w3.org/1999/xlink" version="1.1" width="1080" height="1080" viewBox="0 0 1080 1080" xml:space="preserve">
<desc>Created with Fabric.js 5.2.4</desc>
<defs>
</defs>
<rect x="0" y="0" width="100%" height="100%" fill="transparent"></rect>
<g transform="matrix(1 0 0 1 540 540)" id="ee87c88b-fc3e-4304-9fef-651687eac67a"  >
<rect style="stroke: none; stroke-width: 1; stroke-dasharray: none; stroke-linecap: butt; stroke-dashoffset: 0; stroke-linejoin: miter; stroke-miterlimit: 4; fill: rgb(255,255,255); fill-rule: nonzero; opacity: 1; visibility: hidden;" vector-effect="non-scaling-stroke"  x="-540" y="-540" rx="0" ry="0" width="1080" height="1080" />
</g>
<g transform="matrix(1 0 0 1 540 540)" id="8409d32c-83c4-4669-8894-85463326c556"  >
</g>
<g transform="matrix(1 0 0 1 271.94 269.31)" id="ee5b95c4-7740-4501-a7a7-0bacc8aa56df"  >
<path style="stroke: rgb(0,0,0); stroke-width: 0; stroke-dasharray: none; stroke-linecap: butt; stroke-dashoffset: 0; stroke-linejoin: miter; stroke-miterlimit: 4; fill: rgb(0,0,0); fill-rule: nonzero; opacity: 0.2;" vector-effect="non-scaling-stroke"  transform=" translate(-256, -256)" d="M 86.6 64 L 171.8 149.2 C 194.5 121.7 208 86.4 208 48 C 208 33.3 206 19.1 202.3 5.600000000000001 C 158.6 15 119 35.5 86.6 64 z M 64 86.6 C 35.5 119 15 158.6 5.6 202.3 C 19.1 206 33.3 208 48 208 C 86.4 208 121.7 194.5 149.3 171.9 L 64 86.6 z M 256 0 C 248.7 0 241.4 0.3 234.2 0.9 C 238 16 240 31.8 240 48 C 240 95.3 222.9 138.5 194.6 172 L 256 233.4 L 425.4 64 C 380.2 24.2 320.9 0 256 0 z M 48 240 C 31.8 240 16 238 0.8999999999999986 234.2 C 0.3 241.4 0 248.7 0 256 C 0 320.9 24.2 380.2 64 425.4 L 233.4 256 L 172 194.6 C 138.5 222.9 95.3 240 48 240 z M 511.1 277.8 C 511.70000000000005 270.6 512 263.3 512 256 C 512 191.1 487.8 131.8 448 86.6 L 278.6 256 L 340 317.4 C 373.4 289.09999999999997 416.7 272 464 272 C 480.2 272 496 274 511.1 277.8 z M 506.40000000000003 309.7 C 492.9 306 478.7 304 464 304 C 425.6 304 390.3 317.5 362.7 340.1 L 448 425.4 C 476.5 393.09999999999997 497.1 353.5 506.4 309.7 z M 340.1 362.7 C 317.5 390.3 304 425.6 304 464 C 304 478.7 306 492.9 309.7 506.4 C 353.4 497 393 476.5 425.4 448 L 340.2 362.8 z M 317.4 340 L 256 278.6 L 86.6 448 C 131.7 487.8 191 512 256 512 C 263.3 512 270.6 511.7 277.8 511.1 C 274 496 272 480.2 272 464 C 272 416.7 289.1 373.5 317.4 340 z" stroke-linecap="round" />
</g>
</svg>