<?xml version="1.0" encoding="UTF-8" standalone="no" ?>
<!DOCTYPE svg PUBLIC "-//W3C//DTD SVG 1.1//EN" "http://www.w3.org/Graphics/SVG/1.1/DTD/svg11.dtd">
<svg xmlns="http://www.w3.org/2000/svg" xmlns:xlink="http://www.w3.org/1999/xlink" version="1.1" width="1080" height="1080" viewBox="0 0 1080 1080" xml:space="preserve">
<desc>Created with Fabric.js 5.2.4</desc>
<defs>
</defs>
<rect x="0" y="0" width="100%" height="100%" fill="transparent"></rect>
<g transform="matrix(1 0 0 1 540 540)" id="cfb93bb6-ef85-4f7b-982b-41afb894e1cd"  >
<rect style="stroke: none; stroke-width: 1; stroke-dasharray: none; stroke-linecap: butt; stroke-dashoffset: 0; stroke-linejoin: miter; stroke-miterlimit: 4; fill: rgb(255,255,255); fill-rule: nonzero; opacity: 1; visibility: hidden;" vector-effect="non-scaling-stroke"  x="-540" y="-540" rx="0" ry="0" width="1080" height="1080" />
</g>
<g transform="matrix(1 0 0 1 540 540)" id="a23bb6d3-d88d-4a9a-adbe-1cc309975e90"  >
</g>
<g transform="matrix(4.47 0 0 4.47 292.72 242.28)" id="316062b2-95df-4008-bd76-b7c51dbb508c"  >
<path style="stroke: rgb(0,0,0); stroke-width: 0; stroke-dasharray: none; stroke-linecap: butt; stroke-dashoffset: 0; stroke-linejoin: miter; stroke-miterlimit: 4; fill: rgb(0,0,0); fill-rule: nonzero; opacity: 0.3;" vector-effect="non-scaling-stroke"  transform=" translate(-61.5, -46.81)" d="M 0.73 82.11 L 0.73 82.11 C 1.4558353087548732 83.38454799102456 2.6631270965494394 84.31420181751241 4.080835096827538 84.69025168496017 C 5.498543097105637 85.06630155240795 7.007881587115383 84.85723931154459 8.270000000000001 84.11 L 32 69.28 L 32 69.22 L 26.59 60.66 L 26.59 60.589999999999996 L 2.8599999999999994 74.59 C 0.24289906240766213 76.12813871644647 -0.6489535190185398 79.48596368551613 0.8600000000000008 82.12 Z M 34.89 0 C 44.62767582688691 0.011266443485283079 53.675614140177956 5.028068927189544 58.843329633253056 13.281381839282362 C 64.01104512632816 21.53469475137518 64.57260804791257 31.86514207792997 60.33 40.63000000000001 L 110.59 11 L 110.59 11 L 114.47 17.46 L 114.47 17.53 L 83 37.31 C 94.93490561923878 38.65496751956775 104.71462826933296 47.39923498199954 107.38133717043422 59.10989565531841 C 110.04804607153548 70.82055632863728 105.0186706270458 82.93709755151409 94.84285291519572 89.31703827725974 C 84.66703520334565 95.6969790030054 71.56969752505474 94.94535788293868 62.190535728433034 87.44320927326548 C 52.81137393181132 79.94106066359228 49.201123086624776 67.32871443451424 53.190000000000005 55.999999999999986 L 34.07 68 L 34.07 67.94 L 28.65 59.37 L 28.65 59.37 L 33.42 56.559999999999995 C 17.801387274785164 56.154070708874364 5.469070708874369 43.16361272521483 5.8750000000000036 27.544999999999995 C 6.280929291125638 11.926387274785156 19.271387274785166 -0.4059292911256378 34.89 0 Z M 116.64 16.23 L 120.21 14 C 125.97 10.4 121.30999999999999 4.68 116.47999999999999 7.53 L 112.74 9.74 L 112.74 9.74 L 116.61999999999999 16.2 L 116.61999999999999 16.2 Z M 74 69.76 L 79 55.53 L 71.82 55.53 L 71.82 50.53 L 84.29 50.53 L 85.51 52.53 L 79.57 69.76 Z M 78.66 44 C 85.20874244362264 44.000031268850954 91.11169616595586 47.94759360365711 93.61309480104357 53.99978597190382 C 96.11449343613127 60.051978340150534 94.72101238251162 67.0151903567698 90.08319175955458 71.63867902477331 C 85.44537113659756 76.26216769277681 78.47787963340295 77.6340908641312 72.43345810527252 75.11397261608097 C 66.3890365771421 72.59385436803075 62.459762847900045 66.6787111748463 62.48 60.12999999999997 C 62.502060742485 51.21127584441504 69.74125028291344 43.99445709984701 78.66 44 Z M 32.11 32.78 C 31.459451457197993 32.78384376858902 30.809965271731397 32.726930030687306 30.169999999999998 32.61 C 29.560075142362365 32.51738429360128 28.973125045117936 32.31042501075787 28.44 32 C 27.9189424592466 31.672709201115435 27.497113617391452 31.20938899776634 27.220000000000002 30.66 C 26.891459572048227 29.942850711929356 26.737259439127516 29.158143368843977 26.770000000000003 28.370000000000005 L 26.770000000000003 25.78 C 26.78713856710031 25.357813079381053 26.864589884346294 24.940249455967916 27 24.54 C 27.117740300624096 24.128109918883997 27.322328206056916 23.7462124954094 27.6 23.419999999999998 C 27.892329396986124 23.07853077833031 28.296257283186254 22.85176424572673 28.740000000000002 22.779999999999998 C 28.296263983694555 22.570064726133847 27.916548329230654 22.24558043959197 27.64 21.839999999999996 C 27.4221644430948 21.496721300756047 27.29169877402221 21.105324293538274 27.26 20.699999999999996 C 27.26 20.289999999999996 27.21 19.849999999999994 27.21 19.399999999999995 L 27.21 17.23 C 27.166347740818114 16.392363785167113 27.39815642525025 15.563472125682512 27.87 14.870000000000001 C 28.309464721778177 14.281700752803552 28.915730396550153 13.839196495929754 29.609999999999996 13.600000000000001 C 30.344486551506364 13.33644836333646 31.11968024652925 13.204428476411167 31.89999999999999 13.21 L 35.58 13.21 C 36.36697850478164 13.202700180310767 37.149038709654896 13.334736318795864 37.89 13.600000000000001 C 38.5797553952066 13.842584830986684 39.18189397939407 14.284617202037607 39.62 14.870000000000001 C 40.091843574749745 15.563472125682514 40.323652259181884 16.392363785167113 40.279999999999994 17.23 L 40.279999999999994 19.4 C 40.274885216854024 19.64432817224292 40.25484789034355 19.888115644787018 40.21999999999999 20.13 C 40.18704493493424 20.469198058751555 40.12004073176682 20.80421907458866 40.01999999999999 21.13 C 39.92461756637694 21.4491479013356 39.764639158611466 21.745278145497224 39.54999999999999 22 C 39.33785038396564 22.244997344978138 39.04183996101285 22.401918533049496 38.71999999999999 22.44 C 39.25380865930571 22.534108589868136 39.7265586346582 22.840854757081587 40.029999999999994 23.290000000000003 C 40.29238595090539 23.693147180929966 40.46936064667749 24.145793998962443 40.55 24.620000000000005 C 40.62284277701402 25.012665174978622 40.662980458977046 25.410697187778585 40.669999999999995 25.810000000000002 L 40.669999999999995 28.380000000000006 C 40.73714065841459 29.37637933081002 40.49249228472418 30.368952732639688 39.96999999999999 31.220000000000006 C 39.51482674175385 31.840495821438747 38.86262052529348 32.28822657544127 38.11999999999999 32.49000000000001 C 37.31917039577328 32.71202704627806 36.4909806407419 32.819759046932546 35.65999999999999 32.81000000000001 Z M 33 28.53 L 34.35 28.53 C 34.92 28.53 35.26 28.42 35.35 28.21 C 35.489512425857264 27.942034187515457 35.55509591292626 27.641730851988992 35.54 27.34 L 35.54 26.12 C 35.55131239656359 25.80283690083308 35.444396475420234 25.49278072951733 35.24 25.25 C 35.01757319579197 25.0081719470381 34.6979290980707 24.879579493931843 34.370000000000005 24.9 L 33 24.9 C 32.812734787966036 24.896523399741987 32.626389874427744 24.927016203775526 32.45 24.99 C 32.306955745863 25.044533126485582 32.17978063739619 25.133899418921718 32.080000000000005 25.25 C 31.97998184304885 25.363029138751024 31.905007068996717 25.495938965479805 31.860000000000007 25.64 C 31.8075579112356 25.794622610850368 31.780540492525688 25.956727123109843 31.78000000000001 26.12 L 31.78000000000001 27.34 C 31.742521703057893 27.67358959977976 31.839708351260885 28.00834361025673 32.05000000000001 28.27 C 32.33708713121195 28.482893363088653 32.695574569175626 28.57610009695921 33.05000000000001 28.53 Z M 33 20.650000000000002 L 34.35 20.650000000000002 C 34.57886158528864 20.667412493341875 34.8079161012511 20.61882517177408 35.01 20.51 C 35.148533062950264 20.39512257390056 35.235026582509605 20.229343328078503 35.25 20.05 C 35.29436271881097 19.795815523670974 35.31445315101845 19.53798831034171 35.31 19.28 L 35.31 18.470000000000002 C 35.31 17.970000000000002 35.21 17.680000000000003 35.010000000000005 17.590000000000003 C 34.80178915988537 17.500092301847072 34.576753679025515 17.455767131374678 34.35000000000001 17.460000000000004 L 33 17.460000000000004 C 32.75539465548814 17.447195104222992 32.511435318188894 17.495299762282 32.29 17.600000000000005 C 32.12 17.700000000000006 32.04 17.990000000000006 32.04 18.470000000000006 L 32.04 19.280000000000005 C 31.986159630195594 19.67706227477353 32.063405407977825 20.080847022271563 32.26 20.430000000000003 C 32.46727434991135 20.599430064963695 32.73382922042295 20.67867610754822 33 20.650000000000002 Z M 33.67 6.810000000000002 C 40.22096011272478 6.797861078404802 46.133622580967774 10.734722298684314 48.648982139320225 16.78353970741253 C 51.16434169767267 22.83235711614075 49.78660884276397 29.800879621781036 45.15867029803486 34.43740963658081 C 40.53073175330575 39.07393965138058 33.56477653169551 40.46459474220327 27.511304258077097 37.96045832729658 C 21.457831984458686 35.456321912389896 17.510011246694262 29.550971359409385 17.51 23 C 17.509998295109085 14.062413687755518 24.752415392646263 6.815520436264361 33.68999999999998 6.810000000000002 Z" stroke-linecap="round" />
</g>
</svg>