<?xml version="1.0" encoding="UTF-8" standalone="no" ?>
<!DOCTYPE svg PUBLIC "-//W3C//DTD SVG 1.1//EN" "http://www.w3.org/Graphics/SVG/1.1/DTD/svg11.dtd">
<svg xmlns="http://www.w3.org/2000/svg" xmlns:xlink="http://www.w3.org/1999/xlink" version="1.1" width="1080" height="1080" viewBox="0 0 1080 1080" xml:space="preserve">
<desc>Created with Fabric.js 5.2.4</desc>
<defs>
</defs>
<rect x="0" y="0" width="100%" height="100%" fill="transparent"></rect>
<g transform="matrix(1 0 0 1 540 540)" id="cfb93bb6-ef85-4f7b-982b-41afb894e1cd"  >
<rect style="stroke: none; stroke-width: 1; stroke-dasharray: none; stroke-linecap: butt; stroke-dashoffset: 0; stroke-linejoin: miter; stroke-miterlimit: 4; fill: rgb(255,255,255); fill-rule: nonzero; opacity: 1; visibility: hidden;" vector-effect="non-scaling-stroke"  x="-540" y="-540" rx="0" ry="0" width="1080" height="1080" />
</g>
<g transform="matrix(1 0 0 1 540 540)" id="a23bb6d3-d88d-4a9a-adbe-1cc309975e90"  >
</g>
<g transform="matrix(5.07 0 0 5.07 285.91 340.46)" id="7def1f9a-8c7f-4bcd-aff9-2d153f5ed6aa"  >
<path style="stroke: rgb(0,0,0); stroke-width: 0; stroke-dasharray: none; stroke-linecap: butt; stroke-dashoffset: 0; stroke-linejoin: miter; stroke-miterlimit: 4; fill: rgb(0,0,0); fill-rule: nonzero; opacity: 0.3;" vector-effect="non-scaling-stroke"  transform=" translate(-48, -61.43)" d="M 50.39 0 C 53.980000000000004 0 57.230000000000004 1.46 59.58 3.81 C 61.94 6.16 63.4 9.41 63.4 13 C 63.4 16.59 61.94 19.84 59.58 22.189999999999998 C 57.23 24.55 53.98 26 50.39 26 C 46.8 26 43.55 24.54 41.2 22.19 C 38.85 19.84 37.39 16.590000000000003 37.39 13.000000000000002 C 37.39 9.410000000000002 38.85 6.160000000000002 41.2 3.8100000000000023 C 43.55 1.46 46.8 0 50.39 0 L 50.39 0 z M 25.72 37.59 L 34.97 31.530000000000005 C 37.06 30.160000000000004 42.75 29.370000000000005 48.31 29.330000000000005 C 53.5 29.290000000000006 58.730000000000004 29.900000000000006 60.99 31.300000000000004 L 70.32000000000001 37.410000000000004 L 71.72000000000001 38.34 C 72.05000000000001 38.56 72.31000000000002 38.77 72.53000000000002 38.96 C 72.81000000000002 38.68 73.18000000000002 38.35 73.66000000000001 37.97 L 75.21000000000001 36.76 C 76.00000000000001 36.15 76.78 35.51 77.57000000000001 34.839999999999996 C 78.34 34.19 79.11000000000001 33.49999999999999 79.89 32.779999999999994 C 80.7 32.03999999999999 81.46 31.319999999999993 82.18 30.609999999999992 C 82.9 29.909999999999993 83.59 29.199999999999992 84.28 28.499999999999993 L 84.37 28.409999999999993 C 85.68 27.07999999999999 87.41000000000001 26.389999999999993 89.15 26.369999999999994 C 90.85000000000001 26.349999999999994 92.57000000000001 26.959999999999994 93.9 28.209999999999994 L 94 28.299999999999994 C 95.33 29.609999999999992 96.02 31.339999999999993 96.04 33.07999999999999 C 96.06 34.81999999999999 95.43 36.56999999999999 94.12 37.91999999999999 C 93.31 38.75999999999999 92.48 39.58999999999999 91.65 40.40999999999999 C 90.80000000000001 41.24999999999999 89.95 42.04999999999999 89.12 42.81999999999999 C 88.25 43.61999999999999 87.35000000000001 44.419999999999995 86.42 45.209999999999994 C 85.51 45.98 84.55 46.75999999999999 83.53 47.55 L 82.13 48.64 C 82.11 48.660000000000004 81.97999999999999 48.77 81.96 48.77 C 78.42999999999999 51.52 76.63999999999999 52.92 73.41999999999999 53.18000000000001 L 73.36999999999999 53.18000000000001 C 71.57999999999998 53.31000000000001 70.16999999999999 53.040000000000006 68.69 52.39000000000001 C 67.35 51.800000000000004 66.03999999999999 50.940000000000005 64.32 49.790000000000006 L 65.11 65.09 L 65.39 65.37 C 65.64 65.65 65.88 65.93 66.09 66.24000000000001 C 66.97 67.50000000000001 67.86 68.78000000000002 68.73 70.08000000000001 C 69.63000000000001 71.42000000000002 70.55 72.82000000000001 71.47 74.29 C 72.36 75.7 73.23 77.14 74.06 78.61000000000001 C 74.89 80.07000000000001 75.69 81.58000000000001 76.46000000000001 83.15000000000002 C 80.26 90.90000000000002 80.24000000000001 90.97000000000003 78.09 97.65000000000002 C 78.01 97.91000000000003 77.92 98.17000000000002 77.84 98.42000000000002 C 77.71000000000001 98.83000000000001 77.58 99.22000000000001 77.48 99.55000000000001 C 77.46000000000001 99.57000000000001 72.60000000000001 115.53000000000002 72.15 117.05000000000001 C 71.55000000000001 119.02000000000001 70.21000000000001 120.57000000000001 68.52000000000001 121.47000000000001 C 66.84 122.37000000000002 64.82000000000001 122.63000000000001 62.85000000000001 122.03000000000002 L 62.830000000000005 122.03000000000002 C 60.86000000000001 121.43000000000002 59.31 120.09000000000002 58.410000000000004 118.40000000000002 C 57.510000000000005 116.72000000000001 57.25000000000001 114.69000000000003 57.85 112.72000000000003 L 63.14 95.35000000000002 L 63.17 95.23000000000002 L 63.58 93.89000000000001 L 63.839999999999996 93.10000000000001 C 64.17 92.07000000000001 64.17999999999999 92.05000000000001 63.06999999999999 89.79 L 63.029999999999994 89.72000000000001 C 62.419999999999995 88.48000000000002 61.74999999999999 87.24000000000001 61.03999999999999 85.99000000000001 C 60.32999999999999 84.74000000000001 59.56999999999999 83.49000000000001 58.78999999999999 82.25000000000001 C 58.36999999999999 81.59000000000002 57.88999999999999 80.86000000000001 57.379999999999995 80.08000000000001 L 56.35999999999999 78.55000000000001 L 56.24999999999999 78.56000000000002 C 56.38999999999999 79.10000000000002 56.50999999999999 79.60000000000002 56.629999999999995 80.08000000000001 C 56.849999999999994 81.02000000000001 57.05 81.97000000000001 57.23 82.93 C 59.089999999999996 92.76 58.58 93.81 55.08 100.48 C 55.04 100.57000000000001 55 100.65 54.949999999999996 100.73 L 54.339999999999996 101.91000000000001 L 53.599999999999994 103.36000000000001 L 45.88999999999999 118.74000000000001 C 44.96999999999999 120.58000000000001 43.38999999999999 121.88000000000001 41.57999999999999 122.48 C 39.779999999999994 123.08 37.74999999999999 123 35.90999999999999 122.09 L 35.87999999999999 122.08 C 34.039999999999985 121.16 32.73999999999999 119.58 32.139999999999986 117.77 C 31.539999999999985 115.97 31.619999999999987 113.92999999999999 32.52999999999999 112.1 L 40.249999999999986 96.69 C 40.829999999999984 95.53 41.29999999999998 94.63 41.70999999999999 93.85 L 41.77999999999999 93.71 C 42.51999999999999 92.28999999999999 42.94999999999999 91.47 43.05999999999999 90.55999999999999 C 43.179999999999986 89.55999999999999 42.999999999999986 88.21 42.51999999999999 85.71 C 42.36999999999999 84.91999999999999 42.19999999999999 84.13 42.01999999999999 83.35 C 41.82999999999999 82.53 41.639999999999986 81.77 41.44999999999999 81.07 C 41.26999999999999 80.42999999999999 41.03999999999999 79.66 40.75999999999999 78.77 L 40.76999999999999 78.77 C 40.53999999999999 78.03999999999999 40.25999999999999 77.22 39.929999999999986 76.28999999999999 L 39.91999999999999 76.25999999999999 C 39.83999999999999 76.02 39.76999999999999 75.78999999999999 39.719999999999985 75.57 L 39.61999999999998 75.13 C 39.58999999999998 75.03 39.55999999999998 74.92999999999999 39.54999999999998 74.82 L 36.48999999999998 46.83999999999999 C 34.97999999999998 47.82999999999999 33.29999999999998 48.83999999999999 31.81999999999998 49.89999999999999 C 30.02999999999998 51.08999999999999 28.68999999999998 51.97999999999999 27.30999999999998 52.57999999999999 C 25.82999999999998 53.22999999999999 24.41999999999998 53.49999999999999 22.62999999999998 53.36999999999999 C 20.96999999999998 53.24999999999999 19.659999999999982 52.79999999999999 18.269999999999982 52.00999999999999 C 17.029999999999983 51.29999999999999 15.739999999999982 50.29999999999999 14.049999999999983 48.96999999999999 C 13.519999999999984 48.57999999999999 12.989999999999982 48.14999999999999 12.469999999999983 47.739999999999995 C 11.449999999999983 46.959999999999994 10.489999999999982 46.17999999999999 9.579999999999982 45.39999999999999 C 8.649999999999983 44.60999999999999 7.749999999999982 43.80999999999999 6.879999999999982 43.00999999999999 C 6.049999999999982 42.24999999999999 5.209999999999982 41.43999999999999 4.349999999999982 40.599999999999994 C 3.519999999999982 39.779999999999994 2.6899999999999817 38.949999999999996 1.8799999999999817 38.10999999999999 C 0.5699999999999816 36.75999999999999 -0.07000000000001827 35.00999999999999 -0.04000000000001824 33.269999999999996 C -0.020000000000018243 31.559999999999995 0.6399999999999818 29.859999999999996 1.9299999999999817 28.559999999999995 L 2.0099999999999816 28.479999999999997 C 3.3599999999999817 27.169999999999998 5.109999999999982 26.529999999999998 6.849999999999982 26.559999999999995 C 8.559999999999981 26.579999999999995 10.259999999999982 27.239999999999995 11.549999999999983 28.529999999999994 L 11.629999999999983 28.609999999999992 C 12.339999999999982 29.339999999999993 13.059999999999983 30.069999999999993 13.799999999999983 30.789999999999992 C 14.519999999999984 31.499999999999993 15.279999999999983 32.21999999999999 16.089999999999982 32.959999999999994 C 16.869999999999983 33.67999999999999 17.64999999999998 34.36999999999999 18.409999999999982 35.019999999999996 C 19.189999999999984 35.69 19.979999999999983 36.33 20.769999999999982 36.94 C 21.279999999999983 37.339999999999996 21.799999999999983 37.769999999999996 22.319999999999983 38.15 C 22.799999999999983 38.53 23.169999999999984 38.86 23.459999999999983 39.14 C 23.659999999999982 38.96 23.889999999999983 38.77 24.189999999999984 38.56 C 24.73 38.23 25.23 37.92 25.72 37.59 L 25.72 37.59 z" stroke-linecap="round" />
</g>
</svg>