<?xml version="1.0" encoding="UTF-8" standalone="no" ?>
<!DOCTYPE svg PUBLIC "-//W3C//DTD SVG 1.1//EN" "http://www.w3.org/Graphics/SVG/1.1/DTD/svg11.dtd">
<svg xmlns="http://www.w3.org/2000/svg" xmlns:xlink="http://www.w3.org/1999/xlink" version="1.1" width="1080" height="1080" viewBox="0 0 1080 1080" xml:space="preserve">
<desc>Created with Fabric.js 5.2.4</desc>
<defs>
</defs>
<rect x="0" y="0" width="100%" height="100%" fill="transparent"></rect>
<g transform="matrix(1 0 0 1 540 540)" id="cfb93bb6-ef85-4f7b-982b-41afb894e1cd"  >
<rect style="stroke: none; stroke-width: 1; stroke-dasharray: none; stroke-linecap: butt; stroke-dashoffset: 0; stroke-linejoin: miter; stroke-miterlimit: 4; fill: rgb(255,255,255); fill-rule: nonzero; opacity: 1; visibility: hidden;" vector-effect="non-scaling-stroke"  x="-540" y="-540" rx="0" ry="0" width="1080" height="1080" />
</g>
<g transform="matrix(1 0 0 1 540 540)" id="a23bb6d3-d88d-4a9a-adbe-1cc309975e90"  >
</g>
<g transform="matrix(4.26 0 0 4.26 285.2 277.72)" id="4159c1fe-a1a7-41d0-9f08-021c412e4c13"  >
<path style="stroke: rgb(0,0,0); stroke-width: 0; stroke-dasharray: none; stroke-linecap: butt; stroke-dashoffset: 0; stroke-linejoin: miter; stroke-miterlimit: 4; fill: rgb(0,0,0); fill-rule: nonzero; opacity: 0.3;" vector-effect="non-scaling-stroke"  transform=" translate(-61.44, -59.93)" d="M 59.927 0 L 59.936 0 L 59.936 0.002 C 65.838 0.003 71.542 0.857 76.926 2.448 C 77.787 2.702 78.656 2.982 79.531 3.284 C 83.959 4.816 88.14500000000001 6.849 92.022 9.312999999999999 C 92.295 9.485999999999999 92.376 9.847999999999999 92.20400000000001 10.120999999999999 C 92.186 10.147999999999998 92.165 10.174999999999999 92.144 10.198999999999998 L 87.85600000000001 15.697 C 87.66600000000001 15.940999999999999 87.32000000000001 15.992999999999999 87.06800000000001 15.822 L 87.058 15.815999999999999 C 85.968 15.142999999999999 84.84200000000001 14.505999999999998 83.686 13.906999999999998 C 82.521 13.304999999999998 81.337 12.746999999999998 80.13600000000001 12.237999999999998 L 80.13400000000001 12.236999999999998 L 80.13400000000001 12.237999999999998 C 73.92800000000001 9.604999999999997 67.09900000000002 8.147999999999998 59.926000000000016 8.147999999999998 L 59.920000000000016 8.147999999999998 L 59.920000000000016 8.146 C 52.774000000000015 8.146 45.96200000000002 9.597000000000001 39.768000000000015 12.217 C 38.756000000000014 12.645000000000001 37.76300000000001 13.103 36.79300000000001 13.588000000000001 C 31.786000000000016 16.092000000000002 27.238000000000014 19.389000000000003 23.313000000000013 23.314 L 23.30900000000001 23.318 L 23.28200000000001 23.343 C 21.98000000000001 24.647 20.74700000000001 26.02 19.59000000000001 27.456 C 18.42600000000001 28.901 17.33500000000001 30.412 16.32800000000001 31.98 C 11.15100000000001 40.04 8.147000000000011 49.632000000000005 8.147000000000011 59.926 L 8.147000000000011 59.932 L 8.145 59.932 C 8.145 67.078 9.596 73.89 12.216 80.084 C 12.644 81.09700000000001 13.101999999999999 82.089 13.587 83.059 C 16.091 88.065 19.387999999999998 92.614 23.314 96.539 L 23.318 96.543 L 23.34 96.566 C 24.644 97.869 26.019 99.10300000000001 27.456 100.261 C 28.901 101.426 30.412 102.51599999999999 31.981 103.523 C 40.041000000000004 108.69999999999999 49.634 111.704 59.92700000000001 111.704 L 59.93300000000001 111.704 L 59.93300000000001 111.707 C 67.081 111.70599999999999 73.891 110.256 80.08500000000001 107.636 C 81.09800000000001 107.208 82.09 106.75 83.06 106.265 C 88.06700000000001 103.761 92.616 100.464 96.54 96.539 L 96.545 96.534 L 96.575 96.50500000000001 C 97.875 95.20200000000001 99.107 93.831 100.263 92.397 C 101.42800000000001 90.95200000000001 102.518 89.44000000000001 103.525 87.872 C 108.703 79.812 111.706 70.22 111.706 59.927 L 111.706 59.917 L 111.709 59.917 C 111.708 55.598 111.177 51.396 110.176 47.38 C 110.01 46.711000000000006 109.83500000000001 46.062000000000005 109.653 45.434000000000005 C 108.691 42.127 107.406 38.955000000000005 105.839 35.956 C 105.703 35.697 105.78099999999999 35.383 106.011 35.215 L 111.55199999999999 30.834000000000003 C 111.80399999999999 30.634000000000004 112.17099999999999 30.677000000000003 112.36999999999999 30.930000000000003 C 112.38799999999999 30.952 112.40299999999999 30.976000000000003 112.416 31.000000000000004 L 112.418 31 L 112.42200000000001 31.008 L 112.42800000000001 31.02 L 112.42900000000002 31.02 C 113.09000000000002 32.217999999999996 113.71400000000001 33.445 114.29500000000002 34.696 C 114.87700000000001 35.948 115.41600000000001 37.221 115.91000000000001 38.51 C 118.45700000000001 45.162 119.85300000000001 52.384 119.85300000000001 59.928 L 119.85300000000001 59.934 L 119.85100000000001 59.934 C 119.85000000000001 68.205 118.17200000000001 76.088 115.14000000000001 83.255 C 114.64900000000002 84.41799999999999 114.11900000000001 85.567 113.55200000000002 86.698 C 110.64900000000002 92.50299999999999 106.83500000000002 97.767 102.30100000000002 102.30199999999999 L 102.29700000000001 102.306 L 102.275 102.326 C 100.763 103.83699999999999 99.17 105.26599999999999 97.504 106.609 C 95.831 107.958 94.083 109.21799999999999 92.27000000000001 110.383 C 82.94000000000001 116.375 71.83700000000002 119.854 59.92600000000001 119.854 L 59.92000000000001 119.854 L 59.92000000000001 119.852 C 51.64900000000001 119.851 43.766000000000005 118.173 36.599000000000004 115.141 C 35.43600000000001 114.65 34.287000000000006 114.119 33.155 113.552 C 27.351 110.65 22.086 106.83500000000001 17.551000000000002 102.302 L 17.547 102.29700000000001 L 17.519000000000002 102.26800000000001 C 16.011000000000003 100.75800000000001 14.584000000000001 99.16800000000002 13.244000000000002 97.50500000000001 C 11.896 95.83200000000001 10.635000000000002 94.084 9.471000000000002 92.27100000000002 C 3.479 82.939 0 71.837 0 59.927 L 0 59.92 L 0.002 59.92 C 0.003 51.649 1.681 43.767 4.712 36.599000000000004 C 5.204 35.43600000000001 5.734 34.288000000000004 6.301 33.155 C 9.203 27.351 13.018 22.087000000000003 17.551000000000002 17.552 L 17.555000000000003 17.548 L 17.581000000000003 17.525 C 19.091000000000005 16.016 20.684000000000005 14.586999999999998 22.347 13.245999999999999 C 24.021 11.897999999999998 25.768 10.636999999999999 27.582 9.472999999999999 C 36.915 3.478 48.017 0 59.927 0 L 59.927 0 z M 93.067 16.299 L 109.83699999999999 0.2749999999999986 L 110.954 11.081999999999999 L 122.88 12.572999999999999 L 104.922 29.973999999999997 L 96.184 30.723999999999997 L 61.316 63.154 L 58.103 60.387 L 91.13 25.887 L 93.067 16.299 L 93.067 16.299 z M 59.927 40.958 L 59.942 40.958 L 59.942 40.96 C 61.07 40.961 62.168 41.058 63.225 41.244 C 63.348 41.266 63.522 41.299 63.742000000000004 41.344 L 63.745000000000005 41.344 L 63.745000000000005 41.344 C 64.625 41.524 65.48700000000001 41.767 66.324 42.067 C 66.628 42.175 66.786 42.509 66.67699999999999 42.813 C 66.65599999999999 42.873000000000005 66.624 42.927 66.58699999999999 42.975 L 66.588 42.976 L 61.907 48.98 C 61.775999999999996 49.148999999999994 61.568 49.224 61.369 49.198 L 61.369 49.2 L 61.342 49.196000000000005 L 61.342 49.197 L 61.134 49.172000000000004 L 61.116 49.169000000000004 L 60.936 49.150000000000006 L 60.921 49.148 C 60.609 49.121 60.278 49.106 59.927 49.106 L 59.921 49.106 L 59.921 49.103 C 58.43 49.104 57.006 49.408 55.712 49.956 C 55.498000000000005 50.047000000000004 55.290000000000006 50.143 55.091 50.242000000000004 C 54.049 50.763000000000005 53.099000000000004 51.452000000000005 52.276 52.275000000000006 L 52.272000000000006 52.279 L 52.245000000000005 52.303000000000004 C 51.981 52.569 51.731 52.85 51.495000000000005 53.14300000000001 C 51.252 53.44400000000001 51.02400000000001 53.76100000000001 50.813 54.089000000000006 C 49.733000000000004 55.77100000000001 49.107 57.776 49.107 59.926 L 49.107 59.932 L 49.104 59.932 C 49.105 61.425000000000004 49.409 62.848 49.957 64.141 C 50.048 64.35600000000001 50.144 64.56400000000001 50.243 64.762 C 50.764 65.805 51.454 66.754 52.276 67.576 L 52.28 67.58099999999999 L 52.304 67.606 C 52.57 67.86999999999999 52.851 68.122 53.144000000000005 68.357 C 53.44500000000001 68.6 53.76200000000001 68.829 54.09 69.04 C 55.773 70.119 57.778000000000006 70.74600000000001 59.92700000000001 70.74600000000001 L 59.93300000000001 70.74600000000001 L 59.93300000000001 70.748 C 61.42600000000001 70.748 62.85000000000001 70.444 64.14200000000001 69.896 C 64.35700000000001 69.805 64.56400000000001 69.709 64.763 69.61 C 65.80600000000001 69.088 66.75500000000001 68.399 67.577 67.576 L 67.582 67.571 L 67.60199999999999 67.55199999999999 C 67.74799999999999 67.40499999999999 67.88999999999999 67.25599999999999 68.02099999999999 67.109 C 68.15199999999999 66.962 68.28899999999999 66.797 68.42899999999999 66.619 C 69.10699999999999 65.759 69.65799999999999 64.795 70.04999999999998 63.758 C 70.09499999999998 63.637 70.17599999999999 63.539 70.27699999999999 63.474000000000004 L 77.84099999999998 57.492000000000004 C 78.09399999999998 57.292 78.45999999999998 57.33500000000001 78.65999999999998 57.588 C 78.72999999999998 57.677 78.76899999999998 57.78 78.78099999999998 57.885 L 78.78399999999998 57.885 L 78.78899999999997 57.93 L 78.79099999999997 57.961 L 78.81499999999997 58.211 L 78.81499999999997 58.217999999999996 L 78.81699999999996 58.217999999999996 L 78.83899999999997 58.489999999999995 L 78.83899999999997 58.495 C 78.87399999999997 58.974999999999994 78.89399999999998 59.452 78.89399999999998 59.925999999999995 L 78.89399999999998 59.931999999999995 L 78.89099999999998 59.931999999999995 C 78.88999999999997 62.54899999999999 78.35899999999998 65.04299999999999 77.39999999999998 67.31099999999999 C 77.24599999999998 67.67599999999999 77.07699999999998 68.03999999999999 76.89699999999998 68.401 C 75.97599999999997 70.24 74.76999999999998 71.907 73.33699999999997 73.339 L 73.33299999999997 73.343 L 73.30099999999997 73.37 C 72.82899999999998 73.84 72.33299999999997 74.287 71.81599999999997 74.70400000000001 C 71.28599999999997 75.13000000000001 70.73199999999997 75.53 70.15999999999997 75.897 C 67.20599999999997 77.793 63.69399999999997 78.894 59.925999999999966 78.894 L 59.919999999999966 78.894 L 59.919999999999966 78.891 C 57.30299999999997 78.89 54.80899999999997 78.35900000000001 52.541999999999966 77.4 C 52.176999999999964 77.24600000000001 51.81199999999997 77.07700000000001 51.45199999999996 76.897 C 49.612999999999964 75.976 47.94599999999996 74.77000000000001 46.51399999999996 73.33800000000001 L 46.50999999999996 73.334 L 46.47699999999996 73.298 C 46.00899999999996 72.827 45.56499999999996 72.33200000000001 45.14899999999996 71.816 C 44.72199999999996 71.286 44.32299999999996 70.733 43.954999999999956 70.16 C 42.058999999999955 67.207 40.957999999999956 63.693999999999996 40.957999999999956 59.92699999999999 L 40.957999999999956 59.92 L 40.95999999999996 59.92 C 40.960999999999956 57.304 41.49299999999996 54.81 42.45099999999996 52.543 C 42.60599999999996 52.178 42.77399999999996 51.814 42.95399999999996 51.452999999999996 C 43.872999999999955 49.617 45.07899999999996 47.95099999999999 46.512999999999955 46.516999999999996 L 46.51399999999995 46.516 L 46.512999999999955 46.515 L 46.51699999999995 46.511 C 46.991999999999955 46.037000000000006 47.49899999999995 45.582 48.034999999999954 45.150000000000006 C 48.564999999999955 44.723000000000006 49.11799999999995 44.324000000000005 49.69099999999995 43.956 C 52.647 42.059 56.161 40.958 59.927 40.958 L 59.927 40.958 z M 60.92 49.148 C 60.613 49.11000000000001 60.389 48.838 60.408 48.53 L 60.92 49.148 L 60.92 49.148 z M 59.927 20.31 L 59.937 20.31 L 59.937 20.311999999999998 C 63.480999999999995 20.313 66.914 20.778999999999996 70.175 21.65 C 70.706 21.791999999999998 71.234 21.945 71.75699999999999 22.108999999999998 C 74.442 22.947 77.008 24.066999999999997 79.41799999999999 25.432 C 79.698 25.590999999999998 79.797 25.948 79.63799999999999 26.227999999999998 C 79.62299999999999 26.252 79.60799999999999 26.276999999999997 79.58999999999999 26.299 L 79.58699999999999 26.302 L 75.243 31.874 C 75.06099999999999 32.106 74.738 32.164 74.49 32.021 L 74.476 32.014 C 73.888 31.707000000000004 73.275 31.410000000000004 72.638 31.130000000000003 C 71.997 30.847 71.35300000000001 30.587000000000003 70.70700000000001 30.351000000000003 C 67.34800000000001 29.125000000000004 63.71600000000001 28.456000000000003 59.92600000000001 28.456000000000003 L 59.92000000000001 28.456000000000003 L 59.92000000000001 28.454000000000004 C 55.57700000000001 28.454000000000004 51.43800000000001 29.337000000000003 47.67300000000001 30.929000000000006 C 47.07900000000001 31.181000000000004 46.47500000000001 31.460000000000004 45.86500000000001 31.764000000000006 L 45.81900000000001 31.785000000000007 C 42.79600000000001 33.30400000000001 40.04800000000001 35.29900000000001 37.67300000000001 37.67300000000001 L 37.66900000000001 37.67700000000001 L 37.646 37.7 C 36.859 38.489000000000004 36.112 39.323 35.411 40.193000000000005 C 34.704 41.071000000000005 34.041000000000004 41.99 33.429 42.943000000000005 C 30.284000000000002 47.84100000000001 28.459000000000003 53.67100000000001 28.459000000000003 59.926 L 28.459000000000003 59.932 L 28.457000000000004 59.932 C 28.457000000000004 64.275 29.340000000000003 68.415 30.932000000000006 72.179 C 31.192000000000007 72.795 31.471000000000007 73.399 31.765000000000004 73.98700000000001 C 33.286 77.028 35.290000000000006 79.792 37.676 82.17800000000001 L 37.68 82.18200000000002 C 38.482 82.98500000000001 39.323 83.74100000000001 40.195 84.44300000000001 C 41.073 85.15 41.992 85.81300000000002 42.945 86.42500000000001 C 47.843 89.57100000000001 53.674 91.39500000000001 59.928 91.39500000000001 L 59.934 91.39500000000001 L 59.934 91.397 C 64.277 91.397 68.417 90.515 72.182 88.923 C 72.798 88.662 73.402 88.384 73.99000000000001 88.089 C 77.031 86.568 79.79500000000002 84.565 82.18100000000001 82.178 L 82.18500000000002 82.17399999999999 C 82.98800000000001 81.371 83.74400000000001 80.53099999999999 84.44600000000001 79.65899999999999 C 85.153 78.77999999999999 85.81600000000002 77.862 86.42800000000001 76.90799999999999 C 89.57500000000002 72.00899999999999 91.4 66.17899999999999 91.4 59.92599999999999 L 91.39800000000001 59.92599999999999 L 91.39800000000001 59.91099999999999 L 91.4 59.91099999999999 C 91.4 57.969999999999985 91.22200000000001 56.06599999999999 90.884 54.219999999999985 C 90.833 53.94399999999998 90.773 53.64199999999998 90.704 53.320999999999984 C 90.377 51.78599999999999 89.93799999999999 50.29699999999998 89.401 48.86499999999998 C 89.30499999999999 48.60799999999998 89.401 48.32599999999998 89.618 48.17799999999998 L 95.28099999999999 43.69999999999998 C 95.53399999999999 43.49999999999998 95.89999999999999 43.542999999999985 96.09899999999999 43.79599999999998 C 96.12899999999999 43.83499999999998 96.15299999999999 43.87399999999998 96.17199999999998 43.915999999999976 L 96.17299999999999 43.915999999999976 L 96.17699999999999 43.92599999999997 L 96.181 43.933999999999976 L 96.182 43.93299999999998 C 96.477 44.601999999999975 96.761 45.29799999999998 97.032 46.01899999999998 C 97.29899999999999 46.73099999999998 97.545 47.44599999999998 97.76599999999999 48.16199999999998 C 98.92099999999999 51.88099999999998 99.544 55.83199999999998 99.544 59.924999999999976 L 99.544 59.930999999999976 L 99.541 59.930999999999976 C 99.541 65.39799999999998 98.432 70.60899999999998 96.428 75.34599999999998 C 96.104 76.11299999999997 95.752 76.87299999999998 95.377 77.62299999999998 C 93.458 81.46099999999997 90.937 84.94099999999997 87.94 87.93699999999998 L 87.935 87.94099999999999 L 87.913 87.96199999999999 C 86.91499999999999 88.957 85.865 89.90099999999998 84.767 90.78599999999999 C 83.661 91.67799999999998 82.505 92.51099999999998 81.307 93.27999999999999 C 75.137 97.24199999999999 67.798 99.54099999999998 59.926 99.54099999999998 L 59.92 99.54099999999998 L 59.92 99.54 C 54.453 99.539 49.242000000000004 98.43100000000001 44.504000000000005 96.427 C 43.737 96.102 42.977000000000004 95.751 42.227000000000004 95.376 C 38.39 93.456 34.909000000000006 90.936 31.912000000000006 87.93900000000001 L 31.908000000000005 87.935 L 31.880000000000006 87.905 C 30.887000000000008 86.91 29.946000000000005 85.862 29.064000000000007 84.766 C 28.172000000000008 83.66000000000001 27.339000000000006 82.504 26.569000000000006 81.30600000000001 C 22.607000000000006 75.13700000000001 20.308000000000007 67.79700000000001 20.308000000000007 59.926000000000016 L 20.308000000000007 59.92 L 20.310000000000006 59.92 C 20.311000000000007 54.453 21.421000000000006 49.242000000000004 23.425000000000004 44.504000000000005 C 23.749000000000006 43.737 24.100000000000005 42.977000000000004 24.475000000000005 42.227000000000004 C 26.393000000000004 38.392 28.914000000000005 34.913000000000004 31.911000000000005 31.915000000000006 L 31.912000000000006 31.914000000000005 L 31.911000000000005 31.913000000000004 L 31.915000000000006 31.909000000000002 L 31.941000000000006 31.885 C 32.937000000000005 30.89 33.98700000000001 29.948 35.083000000000006 29.065 C 36.190000000000005 28.173000000000002 37.345000000000006 27.34 38.543000000000006 26.571 C 44.715 22.609 52.056 20.31 59.927 20.31 L 59.927 20.31 z" stroke-linecap="round" />
</g>
</svg>