<?xml version="1.0" encoding="UTF-8" standalone="no" ?>
<!DOCTYPE svg PUBLIC "-//W3C//DTD SVG 1.1//EN" "http://www.w3.org/Graphics/SVG/1.1/DTD/svg11.dtd">
<svg xmlns="http://www.w3.org/2000/svg" xmlns:xlink="http://www.w3.org/1999/xlink" version="1.1" width="1080" height="1080" viewBox="0 0 1080 1080" xml:space="preserve">
<desc>Created with Fabric.js 5.2.4</desc>
<defs>
</defs>
<rect x="0" y="0" width="100%" height="100%" fill="transparent"></rect>
<g transform="matrix(1 0 0 1 540 540)" id="ee87c88b-fc3e-4304-9fef-651687eac67a"  >
<rect style="stroke: none; stroke-width: 1; stroke-dasharray: none; stroke-linecap: butt; stroke-dashoffset: 0; stroke-linejoin: miter; stroke-miterlimit: 4; fill: rgb(255,255,255); fill-rule: nonzero; opacity: 1; visibility: hidden;" vector-effect="non-scaling-stroke"  x="-540" y="-540" rx="0" ry="0" width="1080" height="1080" />
</g>
<g transform="matrix(1 0 0 1 540 540)" id="8409d32c-83c4-4669-8894-85463326c556"  >
</g>
<g transform="matrix(1 0 0 1 266.68 269.31)" id="61538f2e-56d1-4013-b23e-74cc992ca2ec"  >
<path style="stroke: rgb(0,0,0); stroke-width: 0; stroke-dasharray: none; stroke-linecap: butt; stroke-dashoffset: 0; stroke-linejoin: miter; stroke-miterlimit: 4; fill: rgb(0,0,0); fill-rule: nonzero; opacity: 0.2;" vector-effect="non-scaling-stroke"  transform=" translate(-256, -256)" d="M 417.3 360.1 L 345.70000000000005 355.3 C 340.50000000000006 355 335.40000000000003 356.40000000000003 331.20000000000005 359.5 C 327.00000000000006 362.59999999999997 324.00000000000006 366.9 322.80000000000007 372 L 305.20000000000005 441.6 C 289.5 445.8 273 448 256 448 C 239 448 222.5 445.8 206.8 441.6 L 189.2 372 C 187.89999999999998 367 184.89999999999998 362.6 180.79999999999998 359.5 C 176.7 356.4 171.49999999999997 355 166.29999999999998 355.3 L 94.69999999999999 360.1 C 77.1 332.90000000000003 66.19999999999999 300.90000000000003 64.29999999999998 266.5 L 125 228.3 C 129.4 225.5 132.6 221.3 134.2 216.4 C 135.79999999999998 211.5 135.6 206.20000000000002 133.7 201.4 L 106.99999999999999 134.8 C 128 109.2 155.3 89 186.7 76.9 L 241.89999999999998 122.9 C 245.89999999999998 126.2 250.89999999999998 128 255.99999999999997 128 C 261.09999999999997 128 266.2 126.2 270.09999999999997 122.9 L 325.29999999999995 76.9 C 356.59999999999997 89 383.99999999999994 109.2 404.9 134.8 L 378.2 201.4 C 376.3 206.20000000000002 376.09999999999997 211.5 377.7 216.4 C 379.3 221.3 382.59999999999997 225.5 386.9 228.3 L 447.59999999999997 266.5 C 445.7 300.9 434.79999999999995 332.9 417.2 360.1 z M 256 512 C 397.3848959566831 512 512 397.3848959566831 512 256 C 512 114.61510404331688 397.3848959566831 0 256 0 C 114.61510404331688 0 0 114.61510404331688 0 256 C 0 397.3848959566831 114.61510404331688 512 256 512 z M 270.1 186.3 C 261.70000000000005 180.20000000000002 250.3 180.20000000000002 241.90000000000003 186.3 L 194 221 C 185.6 227.1 182.1 237.9 185.3 247.8 L 203.60000000000002 304.1 C 206.8 314 216.00000000000003 320.70000000000005 226.40000000000003 320.70000000000005 L 285.6 320.70000000000005 C 296 320.70000000000005 305.20000000000005 314.00000000000006 308.40000000000003 304.1 L 326.70000000000005 247.8 C 329.90000000000003 237.9 326.40000000000003 227.10000000000002 318.00000000000006 221 L 270.1000000000001 186.2 z" stroke-linecap="round" />
</g>
</svg>