<?xml version="1.0" encoding="UTF-8" standalone="no" ?>
<!DOCTYPE svg PUBLIC "-//W3C//DTD SVG 1.1//EN" "http://www.w3.org/Graphics/SVG/1.1/DTD/svg11.dtd">
<svg xmlns="http://www.w3.org/2000/svg" xmlns:xlink="http://www.w3.org/1999/xlink" version="1.1" width="1080" height="1080" viewBox="0 0 1080 1080" xml:space="preserve">
<desc>Created with Fabric.js 5.2.4</desc>
<defs>
</defs>
<rect x="0" y="0" width="100%" height="100%" fill="transparent"></rect>
<g transform="matrix(1 0 0 1 540 540)" id="cfb93bb6-ef85-4f7b-982b-41afb894e1cd"  >
<rect style="stroke: none; stroke-width: 1; stroke-dasharray: none; stroke-linecap: butt; stroke-dashoffset: 0; stroke-linejoin: miter; stroke-miterlimit: 4; fill: rgb(255,255,255); fill-rule: nonzero; opacity: 1; visibility: hidden;" vector-effect="non-scaling-stroke"  x="-540" y="-540" rx="0" ry="0" width="1080" height="1080" />
</g>
<g transform="matrix(1 0 0 1 540 540)" id="a23bb6d3-d88d-4a9a-adbe-1cc309975e90"  >
</g>
<g transform="matrix(4.06 0 0 4.06 196.29 273.3)" id="8b3f082e-866b-4b0c-9a5b-687decd6c2b1"  >
<path style="stroke: rgb(0,0,0); stroke-width: 0; stroke-dasharray: none; stroke-linecap: butt; stroke-dashoffset: 0; stroke-linejoin: miter; stroke-miterlimit: 4; fill: rgb(0,0,0); fill-rule: nonzero; opacity: 0.3;" vector-effect="non-scaling-stroke"  transform=" translate(-42.14, -61.43)" d="M 42.14 0 C 53.77 0 64.3 4.72 71.93 12.34 C 79.55000000000001 19.96 84.27000000000001 30.5 84.27000000000001 42.129999999999995 C 84.27000000000001 53.769999999999996 79.55000000000001 64.3 71.93 71.91999999999999 C 70.47000000000001 73.37999999999998 68.9 74.72999999999999 67.24000000000001 75.96999999999998 C 61.99000000000001 83.98999999999998 58.37000000000001 91.44999999999999 56.08000000000001 98.33999999999999 C 54.070000000000014 104.38999999999999 53.08000000000001 110.01999999999998 52.890000000000015 115.21 L 72.68 115.21 C 74.80000000000001 115.21 76.51 116.92999999999999 76.51 119.03999999999999 C 76.51 121.16 74.79 122.86999999999999 72.68 122.86999999999999 L 11.15 122.86999999999999 C 9.030000000000001 122.86999999999999 7.32 121.14999999999999 7.32 119.03999999999999 C 7.32 116.91999999999999 9.040000000000001 115.21 11.15 115.21 L 31.1 115.21 C 30.91 110.02 29.92 104.39999999999999 27.91 98.33999999999999 C 25.58 91.32999999999998 21.88 83.74 16.490000000000002 75.57 C 15.030000000000001 74.44999999999999 13.640000000000002 73.22999999999999 12.340000000000002 71.92999999999999 C 4.72 64.3 0 53.77 0 42.14 C 0 30.5 4.72 19.97 12.34 12.34 C 19.97 4.72 30.5 0 42.14 0 L 42.14 0 z M 48.86 48.34 C 51.32 48.34 53.32 50.34 53.32 52.800000000000004 C 53.32 55.27 51.32 57.260000000000005 48.86 57.260000000000005 C 46.4 57.260000000000005 44.4 55.260000000000005 44.4 52.800000000000004 C 44.39 50.34 46.39 48.34 48.86 48.34 L 48.86 48.34 z M 63.36 53.17 C 65.82 53.17 67.82 55.17 67.82 57.63 C 67.82 60.09 65.82 62.09 63.35999999999999 62.09 C 60.88999999999999 62.09 58.89999999999999 60.09 58.89999999999999 57.63 C 58.9 55.17 60.9 53.17 63.36 53.17 L 63.36 53.17 z M 51.83 60.24 C 54.3 60.24 56.29 62.24 56.29 64.7 C 56.29 67.16 54.29 69.16 51.83 69.16 C 49.37 69.16 47.37 67.16 47.37 64.7 C 47.37 62.24 49.37 60.24 51.83 60.24 L 51.83 60.24 z M 37.14 56.33 C 39.61 56.33 41.6 58.33 41.6 60.79 C 41.6 63.25 39.6 65.25 37.14 65.25 C 34.68 65.25 32.68 63.25 32.68 60.79 C 32.68 58.33 34.67 56.33 37.14 56.33 L 37.14 56.33 z M 60.39 40.53 C 62.85 40.53 64.85 42.53 64.85 44.99 C 64.85 47.46 62.849999999999994 49.45 60.38999999999999 49.45 C 57.92999999999999 49.45 55.92999999999999 47.45 55.92999999999999 44.99 C 55.92 42.52 57.92 40.53 60.39 40.53 L 60.39 40.53 z M 46.2 115.21 C 46.39 109.36 47.49 103.03 49.74 96.25 C 51.260000000000005 91.69 53.29 86.92 55.910000000000004 81.96000000000001 C 51.59 83.45 46.95 84.27000000000001 42.13 84.27000000000001 C 37.18 84.27000000000001 32.43000000000001 83.42000000000002 28.020000000000003 81.85000000000001 C 30.67 86.85000000000001 32.730000000000004 91.65 34.260000000000005 96.25000000000001 C 36.510000000000005 103.03000000000002 37.61000000000001 109.36000000000001 37.800000000000004 115.21000000000001 L 46.2 115.21000000000001 L 46.2 115.21 z M 62.59 71.06 C 62.77 70.9 62.96 70.76 63.17 70.64 C 64.60000000000001 69.59 65.94 68.43 67.19 67.18 C 73.6 60.77000000000001 77.57 51.91000000000001 77.57 42.13000000000001 C 77.57 32.35000000000001 73.6 23.49000000000001 67.19 17.08000000000001 C 60.77 10.67 51.92 6.71 42.14 6.71 C 32.36 6.71 23.5 10.68 17.09 17.09 C 10.67 23.5 6.71 32.35 6.71 42.14 C 6.71 51.92 10.68 60.78 17.09 67.19 C 23.5 73.6 32.36 77.57 42.14 77.57 C 49.75 77.56 56.81 75.16 62.59 71.06 L 62.59 71.06 z" stroke-linecap="round" />
</g>
</svg>