<?xml version="1.0" encoding="UTF-8" standalone="no" ?>
<!DOCTYPE svg PUBLIC "-//W3C//DTD SVG 1.1//EN" "http://www.w3.org/Graphics/SVG/1.1/DTD/svg11.dtd">
<svg xmlns="http://www.w3.org/2000/svg" xmlns:xlink="http://www.w3.org/1999/xlink" version="1.1" width="1080" height="1080" viewBox="0 0 1080 1080" xml:space="preserve">
<desc>Created with Fabric.js 5.2.4</desc>
<defs>
</defs>
<rect x="0" y="0" width="100%" height="100%" fill="transparent"></rect>
<g transform="matrix(1 0 0 1 540 540)" id="ee87c88b-fc3e-4304-9fef-651687eac67a"  >
<rect style="stroke: none; stroke-width: 1; stroke-dasharray: none; stroke-linecap: butt; stroke-dashoffset: 0; stroke-linejoin: miter; stroke-miterlimit: 4; fill: rgb(255,255,255); fill-rule: nonzero; opacity: 1; visibility: hidden;" vector-effect="non-scaling-stroke"  x="-540" y="-540" rx="0" ry="0" width="1080" height="1080" />
</g>
<g transform="matrix(1 0 0 1 540 540)" id="8409d32c-83c4-4669-8894-85463326c556"  >
</g>
<g transform="matrix(1 0 0 1 243.03 269.31)" id="23391439-3430-45d0-b2c4-f214d11afa1d"  >
<path style="stroke: rgb(0,0,0); stroke-width: 0; stroke-dasharray: none; stroke-linecap: butt; stroke-dashoffset: 0; stroke-linejoin: miter; stroke-miterlimit: 4; fill: rgb(0,0,0); fill-rule: nonzero; opacity: 0.2;" vector-effect="non-scaling-stroke"  transform=" translate(-226, -255.83)" d="M 377.86 6.03 C 379.56 1.2999999999999998 384.76 -1.1600000000000001 389.49 0.5300000000000002 C 394.21000000000004 2.2300000000000004 396.67 7.430000000000001 394.98 12.16 C 384.01 42.56 373.23 73.26 362.34000000000003 103.92999999999999 L 401.22 119.02999999999999 L 434.31000000000006 24.64999999999999 C 435.96000000000004 19.90999999999999 441.15000000000003 17.39999999999999 445.89000000000004 19.05999999999999 C 450.64000000000004 20.70999999999999 453.14000000000004 25.89999999999999 451.49000000000007 30.639999999999993 L 369.7300000000001 263.86 C 369.6500000000001 264.1 369.57000000000005 264.35 369.4700000000001 264.59000000000003 L 360.7700000000001 289.41 C 337.3800000000001 347.41 321.0700000000001 387.84000000000003 285.3100000000001 413.66 C 281.23000000000013 416.59000000000003 275.5500000000001 415.67 272.6200000000001 411.59000000000003 C 269.6900000000001 407.52000000000004 270.6100000000001 401.83000000000004 274.6800000000001 398.90000000000003 C 306.1300000000001 376.20000000000005 321.6300000000001 337.79 343.84000000000015 282.70000000000005 L 349.5600000000002 266.40000000000003 L 307.8500000000002 249.63000000000002 C 285.1500000000002 302.85 258.6800000000002 336.87 180.0300000000002 324.86 C 179.6300000000002 324.8 179.2500000000002 324.71000000000004 178.8700000000002 324.61 L 60.18 300.26 C 45.54 297.78 34.64 299.18 27.93 304.89 C 21.23 310.58 17.88 321.26 18.21 337.39 C 18.68 342.74 18.94 346.46 19.19 350.14 C 20.93 375.27 22.62 399.57 42.31 416.69 L 42.34 416.69 C 44.480000000000004 418.55 46.75 420.2 49.150000000000006 421.62 C 51.660000000000004 423.09000000000003 54.27 424.33 57.010000000000005 425.32 C 61.74000000000001 427.01 64.19 432.21999999999997 62.50000000000001 436.94 C 61.69011556878508 439.2111685950175 60.00957405047632 441.0665967693358 57.82940708700971 442.09664122969997 C 55.64924012354311 443.12668569006416 53.14875092336751 443.246632614238 50.88000000000001 442.43 C 46.89000000000001 441 43.23000000000001 439.28000000000003 39.88000000000001 437.3 C 36.50437390737476 435.31182076410914 33.31775528073696 433.0189281598582 30.360000000000014 430.45 L 30.38000000000001 430.43 C 4.96 408.32 3.02 380.31 1.01 351.35 C 0.69 346.69 0.37 342.01000000000005 0.09999999999999998 338.92 L 0.02999999999999997 337.99 C -0.47000000000000003 315.87 5.08 300.4 16.16 290.98 C 27.25 281.55 43.08 278.88 63.17 282.3 C 99.22 290.34000000000003 147.03 301.89 182.74 306.82 C 261.98 318.92 279.45 273.69 303.78000000000003 210.75 L 306.89000000000004 202.7 L 377.86 6.03 z M 356.24 121.08 C 344.71000000000004 153.38 332.99 185.57999999999998 320.75 217.31 C 318.71 222.58 316.72 227.74 314.73 232.77 L 355.59000000000003 249.21 L 395.20000000000005 136.21 L 356.24000000000007 121.08000000000001 z M 95.27 418.33 C 97.32 421.32 102.75 424.34 110.31 427.14 C 124.07000000000001 432.22999999999996 143.34 435.39 163.15 436.11 C 183 436.84000000000003 203.22 435.14 218.82 430.5 C 228.79 427.54 236.54 423.55 240.31 418.51 C 231.5 406.01 208.7 398.98 183.59 396.78 C 170.05 395.59 156.05 395.86999999999995 143.19 397.5 C 130.52 399.11 118.92 402 109.94999999999999 406.08 C 102.15999999999998 409.60999999999996 96.75999999999999 413.78 95.26999999999998 418.33 z M 241.55 440.65 C 236.43 443.59 230.49 446.03 223.95000000000002 447.96999999999997 C 206.48000000000002 453.15999999999997 184.19000000000003 455.09 162.51000000000002 454.29999999999995 C 140.79000000000002 453.49999999999994 119.48000000000002 449.96999999999997 104.03000000000003 444.24999999999994 C 100.76000000000003 443.03999999999996 97.71000000000004 441.7099999999999 94.92000000000003 440.25999999999993 L 94.92000000000003 468.8299999999999 L 94.88000000000002 468.8299999999999 L 94.88000000000002 469.93999999999994 C 94.88000000000002 472.41999999999996 94.87000000000002 472.7099999999999 97.14000000000003 475.0199999999999 L 98.22000000000003 476.0499999999999 C 112.26000000000002 488.9799999999999 142.12000000000003 494.1399999999999 171.49 493.4199999999999 C 200.83 492.6999999999999 228.86 486.2099999999999 239.47000000000003 475.7999999999999 L 240.08000000000004 475.1699999999999 C 241.65000000000003 473.4599999999999 241.63000000000005 472.6299999999999 241.61000000000004 470.5999999999999 L 241.59000000000003 468.4799999999999 L 241.55000000000004 468.4799999999999 L 241.55000000000004 440.6499999999999 z M 185.16000000000003 378.59999999999997 C 218.13000000000002 381.47999999999996 248.51000000000002 392.74999999999994 258.66 413.92999999999995 C 259.41560333181314 415.28412954623315 259.8115337690409 416.8093224479017 259.81 418.35999999999996 L 259.81 468.47999999999996 L 259.77 468.47999999999996 L 259.78999999999996 470.36999999999995 C 259.89 477.56999999999994 259.92999999999995 480.49999999999994 253.47999999999996 487.50999999999993 L 252.19999999999996 488.80999999999995 C 238.30999999999995 502.3999999999999 205.35999999999996 510.78 171.90999999999997 511.59999999999997 C 138.45999999999998 512.43 103.64999999999996 505.80999999999995 85.87999999999997 489.46 L 84.15999999999997 487.78 C 76.66999999999997 480.15 76.66999999999997 479.09 76.69999999999997 469.94 L 76.69999999999997 468.83 L 76.65999999999997 468.83 L 76.65999999999997 419.4 L 76.69999999999997 418.60999999999996 C 77.80999999999997 405.94999999999993 87.63999999999997 396.19999999999993 102.46999999999997 389.46 C 113.00999999999996 384.68 126.41999999999997 381.29999999999995 140.90999999999997 379.46 C 155.20999999999998 377.65 170.54999999999995 377.32 185.15999999999997 378.59999999999997 z" stroke-linecap="round" />
</g>
</svg>