<svg xmlns="http://www.w3.org/2000/svg" viewBox="0 0 48 48"><defs><style>.cls-1{fill:#201602;}</style></defs><title>Asset 32ldpi</title><g id="Layer_2" data-name="Layer 2"><g id="layer_1-2" data-name="layer 1"><path class="cls-1" d="M24,12c-2.76,0-5-2.69-5-6s2.24-6,5-6,5,2.69,5,6S26.76,12,24,12ZM24,2c-1.65,0-3,1.79-3,4s1.35,4,3,4,3-1.79,3-4S25.65,2,24,2Z"/><rect class="cls-1" x="17" y="46" width="14" height="2"/><rect class="cls-1" x="18" y="26" width="2" height="21"/><rect class="cls-1" x="23" y="30" width="2" height="17"/><rect class="cls-1" x="28" y="26" width="2" height="21"/><path class="cls-1" d="M19,29H17a3,3,0,0,1-3-3V15.58a5,5,0,0,1,4.45-5l5.44-.6.22,2-5.44.61a3,3,0,0,0-2.67,3V26a1,1,0,0,0,1,1h1V16h2V28A1,1,0,0,1,19,29Z"/><path class="cls-1" d="M31,29H29a1,1,0,0,1-1-1V16h2V27h1a1,1,0,0,0,1-1V15.58a3,3,0,0,0-2.67-3L23.89,12l.22-2,5.44.6a5,5,0,0,1,4.45,5V26A3,3,0,0,1,31,29Z"/><rect class="cls-1" x="19" y="25" width="10" height="2"/><path class="cls-1" d="M10,14c-2.76,0-5-2.69-5-6a4.68,4.68,0,0,1,5-5,4.68,4.68,0,0,1,5,5C15,11.31,12.76,14,10,14Zm0-9A2.72,2.72,0,0,0,7,8c0,2.21,1.35,4,3,4s3-1.79,3-4A2.72,2.72,0,0,0,10,5Z"/><rect class="cls-1" x="3" y="46" width="12" height="2"/><rect class="cls-1" x="4" y="28" width="2" height="19"/><rect class="cls-1" x="9" y="32" width="2" height="15"/><path class="cls-1" d="M5,31H3a3,3,0,0,1-3-3V17.58a5,5,0,0,1,4.45-5L9.89,12l.22,2-5.44.61a3,3,0,0,0-2.67,3V28a1,1,0,0,0,1,1H4V18H6V30A1,1,0,0,1,5,31Z"/><rect class="cls-1" x="5" y="27" width="8" height="2"/><path class="cls-1" d="M38,14c-2.76,0-5-2.69-5-6a4.68,4.68,0,0,1,5-5,4.68,4.68,0,0,1,5,5C43,11.31,40.76,14,38,14Zm0-9a2.72,2.72,0,0,0-3,3c0,2.21,1.35,4,3,4s3-1.79,3-4A2.72,2.72,0,0,0,38,5Z"/><rect class="cls-1" x="33" y="46" width="12" height="2"/><rect class="cls-1" x="42" y="28" width="2" height="19"/><rect class="cls-1" x="37" y="32" width="2" height="15"/><path class="cls-1" d="M45,31H43a1,1,0,0,1-1-1V18h2V29h1a1,1,0,0,0,1-1V17.58a3,3,0,0,0-2.67-3L37.89,14l.22-2,5.44.6a5,5,0,0,1,4.45,5V28A3,3,0,0,1,45,31Z"/><rect class="cls-1" x="35" y="27" width="8" height="2"/></g></g></svg>