<?xml version="1.0" encoding="UTF-8" standalone="no" ?>
<!DOCTYPE svg PUBLIC "-//W3C//DTD SVG 1.1//EN" "http://www.w3.org/Graphics/SVG/1.1/DTD/svg11.dtd">
<svg xmlns="http://www.w3.org/2000/svg" xmlns:xlink="http://www.w3.org/1999/xlink" version="1.1" width="1080" height="1080" viewBox="0 0 1080 1080" xml:space="preserve">
<desc>Created with Fabric.js 5.2.4</desc>
<defs>
</defs>
<rect x="0" y="0" width="100%" height="100%" fill="transparent"></rect>
<g transform="matrix(1 0 0 1 540 540)" id="cfb93bb6-ef85-4f7b-982b-41afb894e1cd"  >
<rect style="stroke: none; stroke-width: 1; stroke-dasharray: none; stroke-linecap: butt; stroke-dashoffset: 0; stroke-linejoin: miter; stroke-miterlimit: 4; fill: rgb(255,255,255); fill-rule: nonzero; opacity: 1; visibility: hidden;" vector-effect="non-scaling-stroke"  x="-540" y="-540" rx="0" ry="0" width="1080" height="1080" />
</g>
<g transform="matrix(1 0 0 1 540 540)" id="a23bb6d3-d88d-4a9a-adbe-1cc309975e90"  >
</g>
<g transform="matrix(4.3 0 0 4.3 302.89 300.59)" id="f0d56914-0918-4878-819b-6823eacdb83b"  >
<path style="stroke: rgb(0,0,0); stroke-width: 0; stroke-dasharray: none; stroke-linecap: butt; stroke-dashoffset: 0; stroke-linejoin: miter; stroke-miterlimit: 4; fill: rgb(0,0,0); fill-rule: nonzero; opacity: 0.3;" vector-effect="non-scaling-stroke"  transform=" translate(-60.59, -61.44)" d="M 4.07 71.67 C 11.14 47.77 27.55 27.65 48.11 14.880000000000003 C 58.29 8.55 68.63 4.36 79.58 2.08 L 119.86 42.36 C 118.16 53.11 114.67 63.36 108.62 73.6 C 95.03 96.58 72.38 111.38999999999999 50.63 118.22999999999999 L 4.07 71.67 L 4.07 71.67 z M 40.59 77.59 L 45.53 72.65 L 42.74 69.85000000000001 C 41.550000000000004 68.66000000000001 41.550000000000004 66.7 42.74 65.51 L 42.74 65.51 C 43.93 64.32000000000001 45.89 64.32000000000001 47.08 65.51 L 49.87 68.30000000000001 L 54.809999999999995 63.360000000000014 L 52.01 60.570000000000014 C 50.82 59.38000000000002 50.82 57.420000000000016 52.01 56.23000000000002 L 52.01 56.23000000000002 C 53.199999999999996 55.04000000000002 55.16 55.04000000000002 56.349999999999994 56.23000000000002 L 59.13999999999999 59.030000000000015 L 64.08 54.09000000000002 L 61.28 51.30000000000002 C 60.09 50.11000000000002 60.09 48.15000000000002 61.28 46.96000000000002 L 61.28 46.96000000000002 C 62.47 45.770000000000024 64.43 45.770000000000024 65.62 46.96000000000002 L 68.41000000000001 49.76000000000002 L 73.35000000000001 44.82000000000002 L 70.55000000000001 42.03000000000002 C 69.36000000000001 40.840000000000025 69.36000000000001 38.880000000000024 70.55000000000001 37.690000000000026 L 70.55000000000001 37.690000000000026 C 71.74000000000001 36.50000000000003 73.70000000000002 36.50000000000003 74.89000000000001 37.690000000000026 L 77.68000000000002 40.49000000000002 L 82.62000000000002 35.550000000000026 L 79.83000000000001 32.760000000000026 C 78.64000000000001 31.570000000000025 78.64000000000001 29.610000000000028 79.83000000000001 28.420000000000027 L 79.83000000000001 28.420000000000027 C 81.02000000000001 27.230000000000025 82.98000000000002 27.230000000000025 84.17000000000002 28.420000000000027 L 94.71000000000001 38.96000000000002 C 95.9 40.15000000000002 95.9 42.11000000000002 94.71000000000001 43.300000000000026 L 94.71000000000001 43.300000000000026 C 93.52000000000001 44.49000000000002 91.56 44.49000000000002 90.37 43.300000000000026 L 87.17 40.10000000000002 L 82.23 45.04000000000002 L 85.43 48.24000000000002 C 86.62 49.43000000000002 86.62 51.39000000000002 85.43 52.58000000000003 L 85.43 52.58000000000003 C 84.24000000000001 53.770000000000024 82.28 53.770000000000024 81.09 52.58000000000003 L 77.89 49.380000000000024 L 72.95 54.32000000000002 L 76.15 57.520000000000024 C 77.34 58.71000000000002 77.34 60.67000000000002 76.15 61.86000000000003 L 76.15 61.86000000000003 C 74.96000000000001 63.050000000000026 73 63.050000000000026 71.81 61.86000000000003 L 68.61 58.660000000000025 L 63.67 63.60000000000002 L 66.87 66.80000000000003 C 68.06 67.99000000000002 68.06 69.95000000000003 66.87 71.14000000000003 L 66.87 71.14000000000003 C 65.68 72.33000000000003 63.720000000000006 72.33000000000003 62.53 71.14000000000003 L 59.33 67.94000000000003 L 54.39 72.88000000000002 L 57.59 76.08000000000003 C 58.78 77.27000000000002 58.78 79.23000000000003 57.59 80.42000000000003 L 57.59 80.42000000000003 C 56.400000000000006 81.61000000000003 54.440000000000005 81.61000000000003 53.25 80.42000000000003 L 50.05 77.22000000000003 L 45.11 82.16000000000003 L 48.31 85.36000000000003 C 49.5 86.55000000000003 49.5 88.51000000000003 48.31 89.70000000000003 L 48.31 89.70000000000003 C 47.120000000000005 90.89000000000003 45.160000000000004 90.89000000000003 43.97 89.70000000000003 L 33.45 79.14 C 32.260000000000005 77.95 32.260000000000005 75.99 33.45 74.8 L 33.45 74.8 C 34.64 73.61 36.6 73.61 37.790000000000006 74.8 L 40.59 77.59 L 40.59 77.59 z M 94.04 0.19 C 97.05000000000001 0.010000000000000009 100.11000000000001 -0.04000000000000001 103.24000000000001 0.03 C 110.41000000000001 0.18 114.69000000000001 1.06 117.25000000000001 3.61 C 119.86000000000001 6.1899999999999995 120.69000000000001 10.5 121.01000000000002 17.490000000000002 C 121.16000000000003 20.830000000000002 121.21000000000002 24.090000000000003 121.14000000000001 27.300000000000004 L 94.04 0.19 L 94.04 0.19 z M 37.46 121.4 C 25.26 123.56 9.810000000000002 124.24000000000001 3.990000000000002 117.08000000000001 C -1.0199999999999978 110.92000000000002 -0.48999999999999844 96.30000000000001 1.160000000000002 85.10000000000001 L 37.46 121.4 L 37.46 121.4 z" stroke-linecap="round" />
</g>
</svg>