<?xml version="1.0" encoding="UTF-8" standalone="no" ?>
<!DOCTYPE svg PUBLIC "-//W3C//DTD SVG 1.1//EN" "http://www.w3.org/Graphics/SVG/1.1/DTD/svg11.dtd">
<svg xmlns="http://www.w3.org/2000/svg" xmlns:xlink="http://www.w3.org/1999/xlink" version="1.1" width="1080" height="1080" viewBox="0 0 1080 1080" xml:space="preserve">
<desc>Created with Fabric.js 5.2.4</desc>
<defs>
</defs>
<rect x="0" y="0" width="100%" height="100%" fill="transparent"></rect>
<g transform="matrix(1 0 0 1 540 540)" id="ee87c88b-fc3e-4304-9fef-651687eac67a"  >
<rect style="stroke: none; stroke-width: 1; stroke-dasharray: none; stroke-linecap: butt; stroke-dashoffset: 0; stroke-linejoin: miter; stroke-miterlimit: 4; fill: rgb(255,255,255); fill-rule: nonzero; opacity: 1; visibility: hidden;" vector-effect="non-scaling-stroke"  x="-540" y="-540" rx="0" ry="0" width="1080" height="1080" />
</g>
<g transform="matrix(1 0 0 1 540 540)" id="8409d32c-83c4-4669-8894-85463326c556"  >
</g>
<g transform="matrix(1 0 0 1 224.63 266.68)" id="62759062-0a1b-4c78-9a89-7b3bb10fc1b7"  >
<path style="stroke: rgb(0,0,0); stroke-width: 0; stroke-dasharray: none; stroke-linecap: butt; stroke-dashoffset: 0; stroke-linejoin: miter; stroke-miterlimit: 4; fill: rgb(0,0,0); fill-rule: nonzero; opacity: 0.2;" vector-effect="non-scaling-stroke"  transform=" translate(-208, -256.03)" d="M 320 48 C 320 21.490332008121914 298.5096679918781 0 272 0 C 245.49033200812192 0 224 21.490332008121907 224 47.99999999999999 C 224 74.50966799187809 245.49033200812192 96 272 96 C 298.5096679918781 96 320 74.50966799187809 320 48 z M 125.7 175.5 C 135.6 165.6 149.1 160 163.2 160 C 165.1 160 167 160.1 168.79999999999998 160.3 L 137.6 254 C 128.29999999999998 282 139.29999999999998 312.8 164.4 328.5 L 250.60000000000002 382.4 L 225.20000000000002 471.2 C 220.3 488.2 230.20000000000002 505.9 247.20000000000002 510.8 C 264.20000000000005 515.7 281.90000000000003 505.8 286.8 488.8 L 315.5 388.4 C 321.4 367.79999999999995 312.9 345.79999999999995 294.8 334.5 L 238 299 L 268.9 216.6 L 274 228.9 C 289 264.7 323.9 288 362.7 288 L 384 288 C 401.7 288 416 273.7 416 256 C 416 238.3 401.7 224 384 224 L 362.7 224 C 349.8 224 338.09999999999997 216.2 333.2 204.3 L 326.9 189.3 C 312.29999999999995 154.20000000000002 282.79999999999995 127.4 246.39999999999998 116.20000000000002 L 197.7 101.20000000000002 C 186.6 97.80000000000001 175 96.00000000000001 163.29999999999998 96.00000000000001 C 132.29999999999998 96.00000000000001 102.49999999999999 108.30000000000001 80.59999999999998 130.3 L 57.4 153.4 C 44.9 165.9 44.9 186.2 57.4 198.7 C 69.9 211.2 90.19999999999999 211.2 102.69999999999999 198.7 L 125.79999999999998 175.6 z M 91.2 352 L 32 352 C 14.3 352 0 366.3 0 384 C 0 401.7 14.3 416 32 416 L 101.6 416 C 120.6 416 137.8 404.8 145.5 387.5 L 157 361.6 L 147.5 355.6 C 130 344.70000000000005 117 328.8 109.6 310.70000000000005 L 91.2 352 z" stroke-linecap="round" />
</g>
</svg>