<?xml version="1.0" encoding="UTF-8" standalone="no" ?>
<!DOCTYPE svg PUBLIC "-//W3C//DTD SVG 1.1//EN" "http://www.w3.org/Graphics/SVG/1.1/DTD/svg11.dtd">
<svg xmlns="http://www.w3.org/2000/svg" xmlns:xlink="http://www.w3.org/1999/xlink" version="1.1" width="1080" height="1080" viewBox="0 0 1080 1080" xml:space="preserve">
<desc>Created with Fabric.js 5.2.4</desc>
<defs>
</defs>
<rect x="0" y="0" width="100%" height="100%" fill="transparent"></rect>
<g transform="matrix(1 0 0 1 540 540)" id="705d26f8-e081-407b-8163-5323c7a20398"  >
<rect style="stroke: none; stroke-width: 1; stroke-dasharray: none; stroke-linecap: butt; stroke-dashoffset: 0; stroke-linejoin: miter; stroke-miterlimit: 4; fill: rgb(255,255,255); fill-rule: nonzero; opacity: 1; visibility: hidden;" vector-effect="non-scaling-stroke"  x="-540" y="-540" rx="0" ry="0" width="1080" height="1080" />
</g>
<g transform="matrix(1 0 0 1 540 540)" id="f420f5db-969f-413d-804e-e81022710fdd"  >
</g>
<g transform="matrix(1 0 0 1 540 540)" id="5b5e7881-8be8-41e5-9106-c21c40501bbf"  >
<path style="stroke: rgb(0,0,0); stroke-width: 0; stroke-dasharray: none; stroke-linecap: butt; stroke-dashoffset: 0; stroke-linejoin: miter; stroke-miterlimit: 4; fill: rgb(0,0,0); fill-rule: nonzero; opacity: 0.3;" vector-effect="non-scaling-stroke"  transform=" translate(-55.45, -61.44)" d="M 39.99 37.79 L 56.31 25.85 L 39.36 14.86 C 37.769999999999996 13.83 37.32 11.709999999999999 38.35 10.12 C 39.38 8.53 41.5 8.079999999999998 43.09 9.11 L 62.230000000000004 21.52 L 65.97 18.78 C 69.02 16.880000000000003 72.31 15.600000000000001 74.96 15.950000000000001 C 77.16999999999999 16.25 79.21 17.450000000000003 81.05999999999999 19.79 C 85.36999999999999 25.169999999999998 88.01999999999998 32.08 90.41999999999999 39.79 L 100.30999999999999 46.2 L 103.55999999999999 45.82 C 108.03999999999999 45.62 110.15999999999998 50.27 108.63999999999999 53.37 C 108.65999999999998 54.04 108.47999999999999 54.73 108.08999999999999 55.33 C 107.05999999999999 56.92 104.93999999999998 57.37 103.35 56.339999999999996 L 103.08 56.16 L 93.74 57.19 C 88.69999999999999 57.76 85.02 59.15 82.28 53.47 L 76.47 38.9 L 75.71 38.41 L 58.52 50.38 C 57.43 51.52 57.27 52.64 58.36000000000001 53.78 L 71.59 63.4 C 73.33 64.57 74.8 65.4 75.16 67.74 C 75.64999999999999 70.89 64.84 90.39999999999999 60.73 97.63999999999999 L 83.85 109.33999999999999 C 87.72 111.02 90.94 111.71999999999998 93.44999999999999 111.36999999999999 C 95.38 111.10999999999999 96.97999999999999 110.03999999999999 98.21999999999998 108.13 C 99.93999999999998 105.49 103.46999999999998 104.74 106.11999999999999 106.44999999999999 C 108.75999999999999 108.16999999999999 109.52 111.69999999999999 107.8 114.35 C 104.64 119.22 100.34 121.96 94.97999999999999 122.69 C 90.36999999999999 123.32 85.13 122.32 79.27999999999999 119.78 C 79.05999999999999 119.7 78.84999999999998 119.61 78.63999999999999 119.5 L 3.14 81.29 C 0.3200000000000003 79.87 -0.81 76.43 0.6100000000000003 73.62 C 2.0300000000000002 70.80000000000001 5.470000000000001 69.67 8.280000000000001 71.09 L 48.07 91.23 L 58.7 72.21000000000001 C 55.71 70.43 52.81 68.65 50.02 66.87 C 40.71 60.96 28.32 47.41 39.99 37.79 L 39.99 37.79 L 39.99 37.79 z M 98.62 0 C 105.4 0 110.9 5.5 110.9 12.28 C 110.9 19.06 105.4 24.56 98.62 24.56 C 91.84 24.56 86.34 19.06 86.34 12.28 C 86.34 5.5 91.84 0 98.62 0 L 98.62 0 L 98.62 0 z" stroke-linecap="round" />
</g>
</svg>