<?xml version="1.0" encoding="UTF-8" standalone="no" ?>
<!DOCTYPE svg PUBLIC "-//W3C//DTD SVG 1.1//EN" "http://www.w3.org/Graphics/SVG/1.1/DTD/svg11.dtd">
<svg xmlns="http://www.w3.org/2000/svg" xmlns:xlink="http://www.w3.org/1999/xlink" version="1.1" width="1080" height="1080" viewBox="0 0 1080 1080" xml:space="preserve">
<desc>Created with Fabric.js 5.2.4</desc>
<defs>
</defs>
<rect x="0" y="0" width="100%" height="100%" fill="transparent"></rect>
<g transform="matrix(1 0 0 1 540 540)" id="cfb93bb6-ef85-4f7b-982b-41afb894e1cd"  >
<rect style="stroke: none; stroke-width: 1; stroke-dasharray: none; stroke-linecap: butt; stroke-dashoffset: 0; stroke-linejoin: miter; stroke-miterlimit: 4; fill: rgb(255,255,255); fill-rule: nonzero; opacity: 1; visibility: hidden;" vector-effect="non-scaling-stroke"  x="-540" y="-540" rx="0" ry="0" width="1080" height="1080" />
</g>
<g transform="matrix(1 0 0 1 540 540)" id="a23bb6d3-d88d-4a9a-adbe-1cc309975e90"  >
</g>
<g transform="matrix(4.31 0 0 4.31 283.48 193.02)" id="13aa2d31-0b5d-4256-9d08-cd6a4ef9d034"  >
<path style="stroke: rgb(0,0,0); stroke-width: 0; stroke-dasharray: none; stroke-linecap: butt; stroke-dashoffset: 0; stroke-linejoin: miter; stroke-miterlimit: 4; fill: rgb(0,0,0); fill-rule: nonzero; opacity: 0.3;" vector-effect="non-scaling-stroke"  transform=" translate(-61.44, -41.07)" d="M 0 66.24 C 7.11 63.49999999999999 13.1 65.28999999999999 21.42 67.78999999999999 C 23.590000000000003 68.44 25.950000000000003 69.14999999999999 28.080000000000002 69.71 C 29.98 70.21 32.900000000000006 69.13 35.96 68 C 39.78 66.59 43.76 65.13 48.53 65.25 C 52.13 65.34 55.160000000000004 66.99 58.22 68.66 C 60.14 69.71 62.089999999999996 70.77 63.17 70.81 C 64.41 70.85000000000001 66.25 69.77 68.09 68.69 C 71.09 66.92 74.09 65.14999999999999 78.26 65.00999999999999 C 82.74000000000001 64.85999999999999 86.21000000000001 66.39999999999999 89.65 67.92999999999999 C 91.61 68.8 93.56 69.66999999999999 95.19000000000001 69.78999999999999 C 96.73000000000002 69.91 98.79 68.58999999999999 100.79 67.32 C 103.57000000000001 65.53999999999999 106.30000000000001 63.79999999999999 109.89 63.39999999999999 C 114.16 62.92999999999999 118.82 64.94 122.78 66.63999999999999 L 122.88 66.68999999999998 C 122.88 70.73999999999998 122.88 74.79999999999998 122.88 78.84999999999998 C 122.03 78.59999999999998 121.14999999999999 78.25999999999998 120.24 77.88999999999999 C 119.61 77.62999999999998 118.96 77.34999999999998 118.3 77.07 C 115.59 75.91 112.39999999999999 74.52999999999999 111.13 74.66999999999999 C 110.11 74.77999999999999 108.5 75.80999999999999 106.86 76.85999999999999 C 106.26 77.23999999999998 105.65 77.62999999999998 105.04 78.00999999999999 C 102 79.85999999999999 98.7 81.44 94.35000000000001 81.10999999999999 C 90.81 80.83999999999999 87.93 79.55999999999999 85.04 78.26999999999998 L 84.79 78.15999999999998 C 82.63000000000001 77.19999999999999 80.46000000000001 76.26999999999998 78.62 76.32999999999998 C 77.49000000000001 76.36999999999999 75.87 77.27999999999999 74.23 78.23999999999998 L 73.85000000000001 78.45999999999998 C 70.60000000000001 80.37999999999998 67.34 82.29999999999998 62.77000000000001 82.12999999999998 C 59.04000000000001 81.98999999999998 55.90000000000001 80.28999999999998 52.81000000000001 78.59999999999998 L 52.42000000000001 78.38999999999999 C 50.70000000000001 77.44999999999999 49.05000000000001 76.58999999999999 48.260000000000005 76.57 C 45.84 76.50999999999999 43.050000000000004 77.47999999999999 40.34 78.47999999999999 L 39.870000000000005 78.64999999999999 C 35.13 80.39999999999999 30.610000000000007 82.05999999999999 25.250000000000007 80.66 C 22.370000000000008 79.91 20.19000000000001 79.25 18.19000000000001 78.64999999999999 L 18.13000000000001 78.63 C 10.88000000000001 76.44999999999999 6.150000000000009 75.05 0.4800000000000111 78.75999999999999 C 0.33000000000001106 78.85999999999999 0.1700000000000111 78.96 0.010000000000011111 79.07 L 0.010000000000011111 78.75999999999999 L 0.010000000000011111 66.24 L 0 66.24 z M 87.91 17.06 L 102.07 14.909999999999998 C 110.88 13.589999999999998 108.22999999999999 -2.2700000000000014 96.94 0.2699999999999978 L 64.83 5.569999999999998 C 61.35 6.139999999999998 55.379999999999995 6.579999999999997 52.78 8.899999999999999 C 51.29 10.229999999999999 50.67 12.079999999999998 51.01 14.389999999999999 C 51.489999999999995 17.66 54.22 21.759999999999998 55.86 24.729999999999997 L 59.83 31.869999999999997 C 62.72 37.059999999999995 64.27 37.559999999999995 58.92 40.43 L 22.45 59.99 L 25.119999999999997 60.78 L 33.129999999999995 60.9 C 34.03999999999999 60.6 34.989999999999995 60.25 35.959999999999994 59.89 C 39.779999999999994 58.480000000000004 43.75999999999999 57.02 48.529999999999994 57.14 C 52.129999999999995 57.230000000000004 55.16 58.88 58.21999999999999 60.55 L 59.599999999999994 61.29 L 66.66 61.4 C 67.13 61.14 67.61 60.86 68.08 60.58 C 71.08 58.809999999999995 74.08 57.04 78.25 56.9 C 82.73 56.75 86.2 58.29 89.64 59.82 C 91.6 60.69 93.55 61.56 95.18 61.68 C 95.55000000000001 61.71 95.95 61.65 96.37 61.54 L 77.79 28.5 C 76.21000000000001 25.69 73.37 22.14 73.78 20 C 73.92 19.28 74.88 18.99 76.05 18.81 C 80.01 18.24 83.95 17.66 87.91 17.06 L 87.91 17.06 z M 103.21 24.42 C 110.97999999999999 24.42 117.28 30.720000000000002 117.28 38.49 C 117.28 46.260000000000005 110.98 52.56 103.21000000000001 52.56 C 95.44000000000001 52.56 89.14000000000001 46.260000000000005 89.14000000000001 38.49 C 89.15 30.71 95.44 24.42 103.21 24.42 L 103.21 24.42 z" stroke-linecap="round" />
</g>
</svg>