<?xml version="1.0" encoding="UTF-8" standalone="no" ?>
<!DOCTYPE svg PUBLIC "-//W3C//DTD SVG 1.1//EN" "http://www.w3.org/Graphics/SVG/1.1/DTD/svg11.dtd">
<svg xmlns="http://www.w3.org/2000/svg" xmlns:xlink="http://www.w3.org/1999/xlink" version="1.1" width="1080" height="1080" viewBox="0 0 1080 1080" xml:space="preserve">
<desc>Created with Fabric.js 5.2.4</desc>
<defs>
</defs>
<rect x="0" y="0" width="100%" height="100%" fill="transparent"></rect>
<g transform="matrix(1 0 0 1 540 540)" id="ee87c88b-fc3e-4304-9fef-651687eac67a"  >
<rect style="stroke: none; stroke-width: 1; stroke-dasharray: none; stroke-linecap: butt; stroke-dashoffset: 0; stroke-linejoin: miter; stroke-miterlimit: 4; fill: rgb(255,255,255); fill-rule: nonzero; opacity: 1; visibility: hidden;" vector-effect="non-scaling-stroke"  x="-540" y="-540" rx="0" ry="0" width="1080" height="1080" />
</g>
<g transform="matrix(1 0 0 1 540 540)" id="8409d32c-83c4-4669-8894-85463326c556"  >
</g>
<g transform="matrix(4.01 0 0 4.01 259.53 262.15)" id="4a449000-d247-4531-93b9-cbc59d91a9a5"  >
<path style="stroke: rgb(0,0,0); stroke-width: 0; stroke-dasharray: none; stroke-linecap: butt; stroke-dashoffset: 0; stroke-linejoin: miter; stroke-miterlimit: 4; fill: rgb(0,0,0); fill-rule: nonzero; opacity: 0.2;" vector-effect="non-scaling-stroke"  transform=" translate(-61.44, -61.44)" d="M 113.5 9.38 C 106.38 2.26 96.54 -0.75 86.38 0.16 C 75.60995456026467 1.2854695503052793 65.57156001588665 6.138421387827005 57.999999999999986 13.880000000000013 C 50.259114328836525 21.452058263944103 45.406290435186506 31.49018815474497 44.28000000000001 42.26 C 43.854078674746816 46.811797834661434 44.27794440349708 51.40311140848442 45.529999999999994 55.79999999999998 C 44.40318799751024 60.83278620178096 42.62485974520902 65.69713588246125 40.240000000000016 70.27 C 38.756874829679994 73.13995869855091 37.08660362543126 75.90926835519532 35.24 78.56 C 34.99693585803867 78.6687144413988 34.773838000507105 78.81744634641984 34.580000000000005 79 L 0.65 111.28 C 0.23353283832374006 111.6963488735429 -0.0004459231998409363 112.26111012807561 -0.0004459231998409363 112.85 C -0.0004459231998409363 113.43888987192439 0.23353283832374022 114.0036511264571 0.6500000000000002 114.42 L 8.459999999999999 122.22 C 8.87369143714519 122.64143949633899 9.439447839524973 122.87886405531503 10.03 122.87886405531503 C 10.620552160475025 122.87886405531503 11.186308562854808 122.64143949633899 11.6 122.22 L 43.88 88.31 C 44.06255365358015 88.1161619994929 44.2112855586012 87.89306414196133 44.32 87.65 C 46.97179068568251 85.80502899298318 49.74099130744875 84.13482355162839 52.61000000000003 82.64999999999999 C 57.1844127846381 80.27098870969407 62.0484252864328 78.496145170684 67.08 77.37000000000003 C 71.47814890891368 78.61533298627461 76.06944119914236 79.03241492992167 80.62000000000002 78.6 C 91.3911272428513 77.47100474787058 101.42942691335516 72.61456167260567 109 64.87 C 116.73949387718278 57.301010363432624 121.5922759535344 47.26650398543733 122.71999999999998 36.50000000000002 C 123.63 26.34 120.62 16.5 113.5 9.379999999999999 Z M 51.5 50.89 L 51.5 50.89 C 51.19753999867396 49.276754799253546 51.030292492551276 47.64107418937374 51 46.00000000000001 L 53.09 43.92 L 56.31 47.14 L 52 51.41 L 51.48 50.88999999999999 Z M 52.27 54.230000000000004 L 55.27 57.230000000000004 L 54 58.46 C 53.3030568730769 57.103476725852474 52.72748022126881 55.6879597275105 52.28 54.230000000000004 Z M 56.53 58.480000000000004 L 59.83 61.78 L 57.769999999999996 63.84 C 56.7012926283379 62.68483180560454 55.74684689508813 61.42898215659168 54.92 60.09 L 56.529999999999994 58.480000000000004 Z M 61.11 63.06 L 64.41 66.36 L 62.79 68 C 61.434051200096256 67.1684026323183 60.164433020994956 66.20362681284291 59 65.12 L 61.06 63.06 Z M 65.69 67.64 L 68.69 70.64 C 67.23141814824912 70.19426907114371 65.81574810956377 69.61863019016526 64.46 68.92 L 65.72 67.66 Z M 72 71.42 L 71.45 70.87 L 75.77000000000001 66.55000000000001 L 79 69.77 L 76.92 71.86 C 75.27058086678304 71.85118481600179 73.62480893371931 71.70400196019936 72 71.42000000000002 Z M 70.16 69.59 L 67 66.36 L 71.28 62 L 74.51 65.23 L 70.18 69.55000000000001 Z M 65.66 65.08 L 62.36 61.78 L 66.68 57.46 L 69.98 60.76 L 65.66 65.08 Z M 61.1 60.5 L 57.800000000000004 57.2 L 62.120000000000005 52.88 L 65.42 56.18 L 61.1 60.5 Z M 56.52 55.92 L 53.290000000000006 52.690000000000005 L 57.61000000000001 48.370000000000005 L 60.84 51.6 L 56.52 55.92 Z M 51.24 42 L 51.82 42.59 L 51.11 43.300000000000004 L 51.11 42.870000000000005 Q 51.11 42.440000000000005 51.2 42.00000000000001 Z M 80.29 71.05 L 80.88000000000001 71.64 Q 80.45 71.7 80.01 71.73 L 79.58 71.73 L 80.28999999999999 71.01 Z M 83.11 71.31 L 81.57 69.77 L 85.89999999999999 65.44999999999999 L 89.11999999999999 68.67999999999999 L 87.61999999999999 70.19 C 86.14186492341791 70.65833412224133 84.63550609033102 71.03241879919418 83.10999999999999 71.31 Z M 80.29 68.49000000000001 L 77.07000000000001 65.27000000000001 L 81.39 61 L 84.61 64.22 L 80.28999999999999 68.53999999999999 Z M 75.79 64 L 72.56 60.77 L 76.88 56.45 L 80.11 59.67 L 75.79 64 Z M 71.28 59.49 L 68 56.18 L 72.32 51.86 L 75.61999999999999 55.16 L 71.29999999999998 59.48 Z M 66.7 54.9 L 63.400000000000006 51.6 L 67.72 47.28 L 71.02 50.58 L 66.7 54.9 Z M 62.120000000000005 50.32 L 58.89000000000001 47.09 L 63.21000000000001 42.77 L 66.44 46 L 62.12 50.32 Z M 57.61000000000001 45.81 L 54.39000000000001 42.59 L 58.71000000000001 38.260000000000005 L 61.93000000000001 41.49 L 57.61000000000001 45.81 Z M 53.11000000000001 41.300000000000004 L 51.57000000000001 39.77 C 51.84642446532734 38.24752940880855 52.22053072926294 36.74442388406726 52.68999999999999 35.27000000000001 L 54.2 33.760000000000005 L 57.43 37 L 53.11 41.3 Z M 90.4 67.4 L 87.18 64.17 L 91.5 59.85 L 94.72 63.08 L 90.4 67.4 Z M 85.9 62.89000000000001 L 82.67 59.66000000000001 L 87 55.34 L 90.23 58.57 L 85.9 62.89 Z M 81.39 58.38000000000001 L 78.16 55.16000000000001 L 82.47999999999999 50.84000000000001 L 85.71 54.06000000000001 L 81.38999999999999 58.38000000000001 Z M 76.88 53.88000000000001 L 73.58 50.58000000000001 L 77.9 46.26000000000001 L 81.2 49.56000000000001 L 76.88 53.88000000000001 Z M 72.3 49.3 L 69 46 L 73.32 41.68 L 76.61999999999999 44.98 L 72.3 49.3 Z M 67.72 44.72 L 64.5 41.49 L 68.82 37.17 L 72 40.4 L 67.68 44.72 Z M 63.21 40.21 L 60 37 L 64.32 32.68 L 67.55 35.91 L 63.22 40.23 Z M 58.71 35.7 L 55.480000000000004 32.480000000000004 L 59.800000000000004 28.160000000000004 L 63 31.38 L 58.71 35.7 Z M 57.29 25.64 L 58.519999999999996 26.87 L 54.28999999999999 31.11 C 55.14864776397759 29.212632373879195 56.1515905211882 27.383933413231865 57.289999999999985 25.640000000000015 Z M 96 64.36 L 97.23 65.59 C 95.48826315870554 66.72626765758339 93.66305411033598 67.72912977207217 91.77000000000001 68.59 L 96 64.36 Z M 98.75 64.55 L 97.28 63.08 L 101.6 58.76 L 103.46 60.62 C 101.98765358215755 62.04278899193473 100.4134760193984 63.356274729014004 98.75 64.54999999999998 Z M 96 61.8 L 92.77 58.57 L 97.09 54.25 L 100.32000000000001 57.47 L 96 61.8 Z M 91.5 57.29 L 88.27 54.06 L 92.59 49.74 L 95.82 53 L 91.5 57.29 Z M 87 52.78 L 83.77 49.56 L 88.1 45.230000000000004 L 91.32 48.46 L 87 52.78 Z M 82.49 48.27 L 79.18 45 L 83.51 40.67 L 86.81 43.97 L 82.48 48.29 Z M 77.9 43.69 L 74.6 40.4 L 78.92999999999999 36.07 L 82.22999999999999 39.37 L 77.9 43.69 Z M 73.32000000000001 39.11 L 70.1 35.89 L 74.41999999999999 31.57 L 77.64999999999999 34.79 L 73.32 39.11 Z M 68.82000000000001 34.61 L 65.59 31.38 L 69.91 27.06 L 73.14 30.29 L 68.82 34.61 Z M 64.31 30.1 L 61.080000000000005 26.87 L 65.4 22.55 L 68.63000000000001 25.78 L 64.31 30.1 Z M 59.8 25.59 L 58.33 24.12 C 59.52372527098598 22.456523980601595 60.837211008065275 20.88234641784246 62.260000000000005 19.410000000000018 L 64.12 21.27 L 59.8 25.59 Z M 95 7.33 L 95 7.33 L 95.52 7.85 L 91.22 12.2 L 88 9 L 90.08 6.92 C 91.72853661403497 6.919884361571521 93.37422096217436 7.05702472391647 94.99999999999999 7.3299999999999965 Z M 96.83 9.16 L 100.05 12.39 L 95.72999999999999 16.71 L 92.50999999999999 13.48 L 96.82999999999998 9.16 Z M 101.33 13.67 L 104.63 16.97 L 100.31 21.29 L 97 18 L 101.32 13.68 Z M 105.91 18.25 L 109.21 21.55 L 104.88999999999999 25.87 L 101.58999999999999 22.57 L 105.91 18.25 Z M 110.49 22.83 L 113.72 26.049999999999997 L 109.4 30.369999999999997 L 106.17 27.15 L 110.49000000000001 22.83 Z M 115 27.33 L 115.55 27.88 C 115.8314185142603 29.505315468137294 115.98190188748944 31.150600348775825 116 32.79999999999998 L 113.92 34.879999999999995 L 110.69 31.649999999999995 L 115 27.33 Z M 114.74 24.509999999999998 L 111.74 21.509999999999998 L 113 20.3 C 113.70004933205749 21.648162391162565 114.27576411983989 23.057324749629952 114.72 24.509999999999998 Z M 110.49 20.259999999999998 L 107.19 17 L 109.25 14.94 C 110.31870737166209 16.095168194395466 111.27315310491186 17.35101784340831 112.1 18.689999999999984 L 110.49 20.29 Z M 105.91 15.679999999999998 L 102.61 12.389999999999997 L 104.22 10.779999999999998 C 105.56939754027242 11.605234742325386 106.83535431188801 12.559725959019682 107.99999999999999 13.629999999999988 L 105.94 15.63 Z M 101.33 11.099999999999998 L 98.33 8.099999999999998 C 99.78093029319571 8.544970761167116 101.18973477820182 9.117193010421387 102.53999999999999 9.809999999999999 L 101.28999999999999 11.059999999999999 Z M 83.9 7.44 L 85.44 9 L 81.12 13.32 L 77.89 10.1 L 79.39 8.59 C 80.86779737339995 8.112703177773321 82.37409086326997 7.728615037340829 83.90000000000002 7.439999999999994 Z M 86.72 10.25 L 89.94 13.48 L 85.62 17.8 L 82.4 14.58 L 86.72 10.25 Z M 91.22 14.76 L 94.45 18 L 90.13 22.32 L 86.9 19.08 L 91.22 14.759999999999998 Z M 95.73 19.27 L 99.03 22.57 L 94.71000000000001 26.89 L 91.41000000000001 23.59 L 95.73000000000002 19.27 Z M 100.31 23.85 L 103.61 27.150000000000002 L 99.28999999999999 31.470000000000002 L 96 28.17 L 100.32 23.85 Z M 104.89 28.43 L 108.12 31.65 L 103.8 36 L 100.57 32.77 L 104.88999999999999 28.450000000000003 Z M 109.4 32.94 L 112.63000000000001 36.16 L 108.30000000000001 40.48 L 105.08000000000001 37.26 L 109.4 32.94 Z M 113.91000000000001 37.44 L 115.44 39 C 115.16254208763232 40.52646523941249 114.78506193848305 42.03304530371619 114.31 43.51 L 112.81 45.01 L 109.58 41.78 L 113.91 37.46 Z M 115.77000000000001 36.75 L 115.19000000000001 36.16 L 115.9 35.449999999999996 L 115.9 35.88999999999999 C 115.9 36.169999999999995 115.9 36.459999999999994 115.81 36.74999999999999 Z M 86.77000000000001 7.690000000000001 L 86.18 7.110000000000001 L 87 7 L 87.44 7 L 86.73 7.71 Z M 76.61 11.35 L 79.84 14.58 L 75.51 18.9 L 72.29 15.669999999999998 L 76.61000000000001 11.349999999999998 Z M 81.12 15.86 L 84.34 19.08 L 80 23.4 L 76.77 20.18 L 81.1 15.86 Z M 85.62 20.36 L 88.85000000000001 23.59 L 84.53 27.91 L 81.3 24.68 L 85.62 20.36 Z M 90.13000000000001 24.869999999999997 L 93.43 28.169999999999998 L 89.11000000000001 32.489999999999995 L 85.81000000000002 29.189999999999994 L 90.13000000000002 24.869999999999994 Z M 94.71000000000001 29.449999999999996 L 98.01 32.74999999999999 L 93.69 37.06999999999999 L 90.39 33.769999999999996 L 94.71000000000001 29.449999999999996 Z M 99.29 34 L 102.52000000000001 37.23 L 98.19000000000001 41.55 L 95 38.35 L 99.29 34 Z M 103.80000000000001 38.51 L 107 41.76 L 102.68 46.08 L 99.46000000000001 42.86 L 103.78 38.54 Z M 108.30000000000001 43.01 L 111.53000000000002 46.239999999999995 L 107.21000000000001 50.559999999999995 L 104 47.37 L 108.3 43 Z M 68.30000000000001 14.169999999999998 L 69.77000000000001 15.639999999999999 L 65.4 20 L 63.540000000000006 18.14 C 65.0136339372982 16.714692045143725 66.59132672938658 15.401062241561673 68.25999999999999 14.210000000000022 Z M 71 17 L 74.22 20.23 L 69.91 24.5 L 66.69 21.27 L 71 17 Z M 75.5 21.509999999999998 L 78.73 24.729999999999997 L 74.42 29 L 71.19 25.77 L 75.50999999999999 21.45 Z M 80 26 L 83.23 29.22 L 78.91 33.54 L 75.7 30.29 L 80 26 Z M 84.51 30.5 L 87.81 33.8 L 83.49000000000001 38.12 L 80.19000000000001 34.82 L 84.51000000000002 30.5 Z M 89.09 35.08 L 92.39 38.379999999999995 L 88.07 42.699999999999996 L 84.77 39.4 L 89.09 35.08 Z M 93.67 39.66 L 96.89 42.88999999999999 L 92.57 47.209999999999994 L 89.37 44 L 93.69 39.68 Z M 98.17 44.169999999999995 L 101.4 47.39999999999999 L 97.1 51.69 L 93.86999999999999 48.46 L 98.19 44.14 Z M 102.68 48.67999999999999 L 105.91000000000001 51.89999999999999 L 101.59 56.21999999999999 L 98.38 53 L 102.69999999999999 48.68 Z M 107.19000000000001 53.17999999999999 L 108.66000000000001 54.64999999999999 C 107.46638504723151 56.316702262959986 106.15290713734647 57.89421262801275 104.73 59.36999999999999 L 102.87 57.49999999999999 L 107.19 53.17999999999999 Z M 109.70000000000002 53.17999999999999 L 108.47000000000001 51.949999999999996 L 112.69000000000001 47.73 C 111.83752608375086 49.62405599694149 110.83430049347818 51.446582485936865 109.69000000000003 53.18 Z M 71 14.39 L 69.77 13.16 C 71.50584113401933 12.019717444969432 73.32804235833513 11.016670899474493 75.22 10.159999999999993 L 71 14.39 Z M 50 65.13 C 51.05740140715822 66.64417001024799 52.24526470858859 68.06291378435077 53.54999999999999 69.36999999999999 C 54.857528703279485 70.67818474455105 56.279909297677015 71.86629088810663 57.8 72.91999999999999 C 54.95936399245295 73.95328859576391 52.18713137885812 75.16572285929996 49.5 76.54999999999998 C 46.87009459416746 77.91131684387729 44.319348626718934 79.42039691885992 41.85999999999998 81.07 C 43.50960308114008 78.61065137328102 45.0186831561227 76.05990540583254 46.379999999999995 73.43 C 47.76519489574255 70.74467442950241 48.97440976693039 67.97216519445853 50.000000000000014 65.13 Z" stroke-linecap="round" />
</g>
</svg>