<?xml version="1.0" encoding="UTF-8" standalone="no" ?>
<!DOCTYPE svg PUBLIC "-//W3C//DTD SVG 1.1//EN" "http://www.w3.org/Graphics/SVG/1.1/DTD/svg11.dtd">
<svg xmlns="http://www.w3.org/2000/svg" xmlns:xlink="http://www.w3.org/1999/xlink" version="1.1" width="1080" height="1080" viewBox="0 0 1080 1080" xml:space="preserve">
<desc>Created with Fabric.js 5.2.4</desc>
<defs>
</defs>
<rect x="0" y="0" width="100%" height="100%" fill="transparent"></rect>
<g transform="matrix(1 0 0 1 540 540)" id="ee87c88b-fc3e-4304-9fef-651687eac67a"  >
<rect style="stroke: none; stroke-width: 1; stroke-dasharray: none; stroke-linecap: butt; stroke-dashoffset: 0; stroke-linejoin: miter; stroke-miterlimit: 4; fill: rgb(255,255,255); fill-rule: nonzero; opacity: 1; visibility: hidden;" vector-effect="non-scaling-stroke"  x="-540" y="-540" rx="0" ry="0" width="1080" height="1080" />
</g>
<g transform="matrix(1 0 0 1 540 540)" id="8409d32c-83c4-4669-8894-85463326c556"  >
</g>
<g transform="matrix(1 0 0 1 266.68 266.68)" id="39ce05c9-0f91-440c-91e0-3aa85752ec83"  >
<path style="stroke: rgb(0,0,0); stroke-width: 0; stroke-dasharray: none; stroke-linecap: butt; stroke-dashoffset: 0; stroke-linejoin: miter; stroke-miterlimit: 4; fill: rgb(0,0,0); fill-rule: nonzero; opacity: 0.2;" vector-effect="non-scaling-stroke"  transform=" translate(-256, -256)" d="M 511.8 267.4 C 485.7 276.09999999999997 458.40000000000003 281.2 430.8 282.5 C 440 177.2 399.3 78.30000000000001 327.6 10.100000000000023 C 434.1 41.1 512 139.5 512 256 C 512 259.8 511.9 263.6 511.8 267.4 z M 507.90000000000003 302.09999999999997 C 502.1 334.09999999999997 490.3 364.09999999999997 473.70000000000005 390.79999999999995 C 376.20000000000005 439.29999999999995 256.00000000000006 433.4 161.80000000000007 366.29999999999995 C 185.50000000000006 330.09999999999997 217.20000000000007 298.59999999999997 256.30000000000007 274.49999999999994 C 336.20000000000005 317.69999999999993 426.4000000000001 325.29999999999995 507.9000000000001 302.09999999999997 z M 271.90000000000003 246.59999999999997 C 269.40000000000003 155.69999999999996 230.80000000000004 73.89999999999998 170.00000000000003 14.899999999999977 C 196.8 5.2 225.8 0 256 0 C 258.7 0 261.3 0 263.9 0.1 C 354.7 60.300000000000004 409.59999999999997 167.29999999999998 398.59999999999997 282.40000000000003 C 355.49999999999994 280.00000000000006 312.19999999999993 268.3 271.79999999999995 246.50000000000003 z M 138 28.8 C 158.6 47.1 176.7 68.2 191.7 91.4 C 95.9 136.1 30.6 220.8 7.3 316.9 C 2.5 297.4 0 277 0 256 C 0 157.2 56 71.5 138 28.8 z M 207.6 119.3 C 227.1 157.9 238.6 201.2 239.89999999999998 247 C 162.5 294.6 110.9 368.9 90.2 451 C 66 430.4 45.6 405.4 30.4 377.2 C 37.1 268.5 102.30000000000001 167.29999999999998 207.5 119.30000000000001 z M 256 512 C 205.3 512 158 497.3 118.19999999999999 471.8 C 123.79999999999998 444.8 133 418.7 145.6 394.1 C 232.2 454.6 338.1 468.8 433 441 C 387 485 324.7 512 256 512 z" stroke-linecap="round" />
</g>
</svg>